<svg width="83" height="82" viewBox="0 0 83 82" fill="none" xmlns="http://www.w3.org/2000/svg">
<path d="M61.0907 10.032H62.7914C64.9741 10.7715 65.8783 12.0261 65.8783 14.3256V14.8705C65.8783 16.5023 65.6987 16.3107 67.2885 16.3047C68.4313 16.2921 69.5447 16.6668 70.4473 17.3676C71.4594 18.1311 72.0283 19.185 72.3995 20.3617V68.2678C72.3277 68.4565 72.2558 68.6451 72.1869 68.8367C71.8462 69.865 71.1862 70.7577 70.3031 71.3851C69.4199 72.0124 68.3597 72.3416 67.2766 72.3249C49.9286 72.3249 32.5816 72.3249 15.2356 72.3249C14.5598 72.332 13.8894 72.2046 13.2635 71.9499C12.6375 71.6953 12.0686 71.3185 11.5897 70.8417C11.1109 70.3648 10.7319 69.7974 10.4747 69.1725C10.2174 68.5475 10.0873 67.8777 10.0917 67.2019C10.0917 51.9418 10.0917 36.6817 10.0917 21.4217C10.0911 20.2479 10.4933 19.1095 11.2312 18.1967C11.9691 17.2839 12.9979 16.6519 14.1457 16.4065C14.786 16.3039 15.4357 16.2727 16.0829 16.3137C16.4991 16.3137 16.6817 16.146 16.6578 15.7328C16.6578 15.2657 16.6847 14.7986 16.6578 14.3345C16.5647 13.3653 16.8262 12.3951 17.3938 11.604C17.9615 10.8128 18.7967 10.2543 19.7447 10.032H21.4454C23.6491 10.7955 24.5294 12.053 24.5324 14.3944C24.5324 14.7986 24.5563 15.2058 24.5324 15.5921C24.4934 16.1161 24.694 16.3137 25.23 16.3017C26.4276 16.2747 27.6552 16.3017 28.8709 16.3017C31.4608 16.3017 34.0507 16.3017 36.6556 16.3017C37.1796 16.3017 37.3981 16.134 37.3592 15.6011C37.3293 15.1999 37.3592 14.7927 37.3592 14.4034C37.3592 12.056 38.2575 10.8105 40.4432 10.032H42.2666L42.5989 10.1817C44.3715 10.9123 45.2218 12.1638 45.2398 14.0741C45.2398 14.601 45.2607 15.128 45.2398 15.655C45.2188 16.1819 45.4194 16.3316 45.9164 16.3227C47.2728 16.2987 48.6321 16.3227 49.9885 16.3227C52.4376 16.3227 54.8869 16.3227 57.3361 16.3227C57.866 16.3227 58.0786 16.149 58.0397 15.619C58.0097 15.1969 58.0397 14.7687 58.0397 14.3435C58.0067 12.053 58.908 10.7865 61.0907 10.032ZM41.2636 64.9503C49.7549 64.9503 58.2463 64.9503 66.7376 64.9503C68.8844 64.9503 69.9174 63.9233 69.9204 61.7915V34.3114C69.9204 33.4311 69.9204 33.4131 69.0461 33.4131H47.3416C47.0991 33.4131 46.8536 33.4131 46.6141 33.4131C46.3059 33.3813 46.0203 33.2368 45.8121 33.0073C45.6039 32.7779 45.4877 32.4796 45.4859 32.1698C45.484 31.86 45.5966 31.5604 45.802 31.3285C46.0075 31.0965 46.2913 30.9486 46.5991 30.913C46.8386 30.8891 47.0841 30.913 47.3267 30.913C54.6024 30.913 61.8771 30.913 69.1509 30.913C69.603 30.913 69.9324 30.8861 69.9294 30.2813C69.9084 27.4039 69.9294 24.5266 69.9144 21.6492C69.9282 21.2522 69.855 20.857 69.6998 20.4913C69.5446 20.1256 69.3113 19.7983 69.0162 19.5324C68.1988 18.8048 67.2047 18.7958 66.2047 18.8617C65.9202 18.8796 65.8813 19.1252 65.8813 19.3647C65.8813 19.8318 65.8813 20.2959 65.8813 20.7629C65.8902 21.7375 65.5373 22.6807 64.8909 23.4101C64.2446 24.1395 63.3507 24.6032 62.3821 24.7116C61.4136 24.82 60.4393 24.5654 59.6476 23.9969C58.856 23.4285 58.3034 22.5866 58.0966 21.6342C57.9767 20.9555 57.9475 20.2637 58.0097 19.5773C58.0247 19.0264 57.848 18.8168 57.2792 18.8317C56.0426 18.8647 54.806 18.8317 53.5724 18.8317C51.0184 18.8317 48.4644 18.8317 45.9104 18.8317C45.3835 18.8317 45.1679 19.0024 45.2038 19.5354C45.2308 19.9575 45.2038 20.3857 45.2038 20.8109C45.1649 22.775 43.6858 24.4547 41.8205 24.6613C40.8558 24.7912 39.877 24.5618 39.0704 24.0169C38.2638 23.472 37.6857 22.6496 37.446 21.7061C37.3071 21.0095 37.2708 20.2963 37.3383 19.5892C37.3622 18.9904 37.1376 18.8257 36.5598 18.8317C33.8052 18.8557 31.0476 18.8317 28.293 18.8317C27.239 18.8317 26.1971 18.8317 25.1312 18.8317C24.688 18.8317 24.5024 18.9964 24.5324 19.4306C24.5623 19.8647 24.5324 20.3647 24.5324 20.8288C24.5324 21.8723 24.1178 22.873 23.38 23.6108C22.6422 24.3486 21.6415 24.7631 20.5981 24.7631C19.5546 24.7631 18.5539 24.3486 17.8161 23.6108C17.0783 22.873 16.6638 21.8723 16.6638 20.8288C16.6638 20.3408 16.6638 19.8557 16.6638 19.3707C16.6638 19.0713 16.574 18.8826 16.2296 18.8377C14.0469 18.5383 12.6367 19.7599 12.6367 21.9426C12.6367 24.6374 12.6367 27.3321 12.6367 30.0268C12.6367 30.9011 12.6367 30.9041 13.5169 30.9041H35.2214C35.4639 30.9041 35.7094 30.9041 35.949 30.9041C36.259 30.9345 36.5467 31.0791 36.7559 31.3099C36.9652 31.5407 37.0811 31.8411 37.0811 32.1526C37.0811 32.4641 36.9652 32.7645 36.7559 32.9953C36.5467 33.2261 36.259 33.3708 35.949 33.4012C35.7056 33.4146 35.4617 33.4146 35.2184 33.4012H13.499C12.6187 33.4012 12.6007 33.4012 12.6007 34.2785V55.6775C12.6007 57.7734 12.6007 59.8902 12.6007 61.9981C12.6007 63.058 12.957 63.9473 13.9002 64.5192C14.4538 64.8222 15.0816 64.9633 15.7116 64.9264L41.2636 64.9503ZM41.2396 69.8158H64.2944C65.2465 69.8158 66.2017 69.8338 67.1508 69.8158C68.7018 69.7769 69.8126 68.7469 69.9234 67.2947C69.9503 66.9684 69.8934 66.8157 69.5341 66.9953C68.6778 67.4235 67.7586 67.4864 66.8125 67.4864C49.7918 67.4864 32.7702 67.4864 15.7476 67.4864C14.8014 67.4864 13.8852 67.4205 13.0259 66.9923C12.7534 66.8576 12.6247 66.8785 12.6337 67.2319C12.6609 67.793 12.8628 68.3317 13.2113 68.7724C13.5597 69.2132 14.0371 69.534 14.5769 69.69C14.9914 69.7893 15.4173 69.8336 15.8434 69.8218L41.2396 69.8158ZM21.9424 17.3167C21.9424 16.1849 21.9424 15.0501 21.9424 13.9184C21.9616 13.6332 21.8831 13.35 21.7199 13.1154C21.5566 12.8809 21.3183 12.7089 21.0442 12.6279C20.125 12.3285 19.2477 12.9273 19.2268 14.0022C19.1818 16.2059 19.1908 18.4126 19.2268 20.6192C19.2268 21.5175 19.8735 22.1373 20.658 22.1163C21.4424 22.0953 21.9484 21.5175 21.9664 20.6013C21.9574 19.5024 21.9424 18.4096 21.9424 17.3167ZM63.3483 17.3167C63.3483 16.6101 63.3483 15.9005 63.3483 15.1939C63.3828 14.6891 63.3617 14.182 63.2854 13.6818C63.2298 13.3485 63.0528 13.0476 62.7886 12.8369C62.5243 12.6263 62.1915 12.5209 61.8542 12.5411C61.5177 12.5646 61.2026 12.7148 60.9725 12.9616C60.7425 13.2083 60.6146 13.5331 60.6146 13.8705C60.6101 13.9512 60.6101 14.0322 60.6146 14.113C60.6146 16.2598 60.6146 18.4036 60.6146 20.5474C60.6146 21.2061 60.8092 21.745 61.4739 22.0085C62.444 22.3828 63.3333 21.7091 63.3662 20.5444C63.3752 19.4725 63.3483 18.3976 63.3483 17.3257V17.3167ZM39.9312 17.2568C39.9312 18.3706 39.9312 19.4815 39.9312 20.5953C39.9461 21.4935 40.4701 22.0923 41.2486 22.0923C42.0271 22.0923 42.6588 21.4935 42.6648 20.5953C42.6848 18.4096 42.6848 16.2248 42.6648 14.0411C42.6648 13.1429 42.036 12.5171 41.2486 12.5441C40.4611 12.571 39.9431 13.1429 39.9282 14.0411C39.9192 15.122 39.9312 16.1939 39.9312 17.2658V17.2568Z" fill="#A88030"/>
<path d="M41.2666 37.4582C41.8021 37.4452 42.3299 37.5883 42.7855 37.8701C43.2411 38.1519 43.6049 38.5601 43.8325 39.0451C44.4463 40.2427 45.0302 41.4404 45.629 42.6381C45.7072 42.8338 45.8399 43.0029 46.0113 43.1255C46.1827 43.2481 46.3856 43.319 46.5961 43.3297C47.9405 43.4944 49.2908 43.698 50.6172 43.9285C51.129 44.015 51.6073 44.2397 52.0006 44.5784C52.3939 44.917 52.6872 45.3567 52.8487 45.8499C53.0103 46.3431 53.0339 46.8711 52.9171 47.3768C52.8004 47.8825 52.5476 48.3467 52.1862 48.7191C51.243 49.6982 50.2639 50.6384 49.2789 51.5725C49.1118 51.718 48.9884 51.907 48.9223 52.1184C48.8562 52.3299 48.8501 52.5555 48.9046 52.7702C49.1411 54.0038 49.3537 55.2403 49.5543 56.4799C49.7429 57.6776 49.4585 58.7075 48.4435 59.4381C47.4285 60.1687 46.3745 60.1747 45.2907 59.6058C44.126 59.007 42.9582 58.3872 41.8025 57.7554C41.6496 57.6592 41.4727 57.6081 41.292 57.6081C41.1114 57.6081 40.9344 57.6592 40.7815 57.7554C39.6467 58.3782 38.491 58.968 37.3442 59.5758C36.1975 60.1837 35.1196 60.1747 34.0896 59.3992C33.0596 58.6237 32.8051 57.5638 33.0327 56.3661C33.2602 55.1685 33.4429 53.9319 33.6734 52.7163C33.726 52.5023 33.7162 52.2778 33.6451 52.0692C33.5739 51.8607 33.4446 51.6769 33.2722 51.5396C32.347 50.6923 31.4578 49.803 30.5625 48.9227C29.6673 48.0425 29.32 47.0724 29.7092 45.8837C30.0984 44.695 30.9368 44.0692 32.1524 43.8926C33.4339 43.707 34.7124 43.4944 35.9969 43.3357C36.1977 43.3232 36.3908 43.2542 36.554 43.1365C36.7172 43.0189 36.8437 42.8575 36.9191 42.671C37.4999 41.4733 38.0868 40.2757 38.7156 39.078C38.9382 38.59 39.2978 38.1771 39.7507 37.8896C40.2035 37.602 40.7302 37.4522 41.2666 37.4582ZM35.5777 56.7015C35.5508 57.3841 35.7095 57.4889 36.2604 57.2075C37.6287 56.5009 39 55.8032 40.3504 55.0637C40.6257 54.8935 40.9429 54.8034 41.2666 54.8034C41.5902 54.8034 41.9075 54.8935 42.1828 55.0637C43.4972 55.7853 44.8326 56.4679 46.162 57.1596C46.3686 57.2644 46.5841 57.4859 46.8326 57.3243C47.0812 57.1626 46.9584 56.8362 46.9195 56.5937C46.6859 55.1146 46.4554 53.6355 46.162 52.1654C46.0854 51.8512 46.0981 51.5219 46.1986 51.2146C46.2991 50.9072 46.4835 50.634 46.7308 50.4258C47.8477 49.3629 48.9435 48.282 50.0453 47.2041C50.1861 47.0664 50.3657 46.9256 50.2999 46.6891C50.234 46.4526 50.0004 46.4436 49.8088 46.4137C48.2668 46.1801 46.7279 45.9256 45.1829 45.728C44.8697 45.7041 44.5692 45.5945 44.3142 45.4112C44.0591 45.228 43.8593 44.9782 43.7367 44.689C43.108 43.3736 42.4642 42.0652 41.8055 40.7637C41.6768 40.5062 41.6288 40.102 41.2725 40.0871C40.9162 40.0721 40.8564 40.4853 40.7306 40.7398C40.0719 42.0412 39.4272 43.3497 38.7964 44.6651C38.6773 44.9558 38.481 45.2085 38.2288 45.3958C37.9766 45.5831 37.678 45.698 37.3652 45.728C35.8412 45.9256 34.3202 46.1711 32.8021 46.4017C32.5896 46.4346 32.3231 46.4017 32.2273 46.6592C32.1315 46.9167 32.371 47.0993 32.5267 47.258C33.6255 48.3359 34.7274 49.4138 35.8382 50.4797C36.066 50.6805 36.2345 50.9398 36.3253 51.2296C36.4161 51.5194 36.4257 51.8286 36.3532 52.1235C36.0807 53.6714 35.8382 55.2374 35.5897 56.7015H35.5777Z" fill="#A88030"/>
<path d="M42.5241 32.1796C42.5211 32.4276 42.4449 32.6693 42.3049 32.8741C42.1649 33.0789 41.9675 33.2377 41.7375 33.3306C41.5075 33.4235 41.2551 33.4463 41.0122 33.3961C40.7692 33.3459 40.5465 33.225 40.3722 33.0485C40.1978 32.8721 40.0795 32.648 40.0322 32.4045C39.9849 32.1609 40.0106 31.9089 40.1062 31.68C40.2018 31.451 40.363 31.2555 40.5695 31.118C40.7759 30.9805 41.0185 30.9071 41.2665 30.907C41.434 30.9033 41.6004 30.9337 41.7557 30.9965C41.911 31.0594 42.0518 31.1532 42.1695 31.2723C42.2872 31.3915 42.3794 31.5334 42.4404 31.6894C42.5013 31.8454 42.5298 32.0122 42.5241 32.1796Z" fill="#A88030"/>
</svg>
