<svg width="77" height="70" viewBox="0 0 77 70" fill="none" xmlns="http://www.w3.org/2000/svg">
<path d="M43.784 10.7888H8.82074C8.82074 21.4665 19.6231 21.4665 19.6231 21.4665H43.6539C49.3275 16.1263 43.784 10.7888 43.784 10.7888Z" fill="url(#paint0_linear_727_1841)"/>
<path d="M64.4427 13.4941C68.169 13.4941 71.1898 10.4734 71.1898 6.74706C71.1898 3.02076 68.169 0 64.4427 0C60.7164 0 57.6957 3.02076 57.6957 6.74706C57.6957 10.4734 60.7164 13.4941 64.4427 13.4941Z" fill="#A88030"/>
<path d="M27.0343 41.0055L0 69.9997H7.98587C14.9037 69.9997 20.3008 64.0957 20.3008 64.0957L34.7518 48.357L27.0343 41.0055Z" fill="#A88030"/>
<path d="M44.8954 37.5738L55.8252 25.7359C55.8252 25.7359 65.8577 13.7598 50.2302 11.1196C49.0591 10.9894 47.777 10.8919 46.362 10.8349C45.5487 10.8024 44.6894 10.7861 43.784 10.7861C43.784 10.7861 49.8046 15.4649 45.2316 21.4638C44.9795 21.7945 44.9686 21.7538 44.646 22.0927L30.2113 37.5738L58.2567 64.703C58.2567 64.703 66.6655 73.4289 76.9067 68.4817L44.8954 37.5738Z" fill="#A88030"/>
<defs>
<linearGradient id="paint0_linear_727_1841" x1="8.82188" y1="16.1264" x2="46.2103" y2="16.1264" gradientUnits="userSpaceOnUse">
<stop stop-color="#A88030"/>
<stop offset="0.2532" stop-color="#A47D2F"/>
<stop offset="0.5046" stop-color="#98752D"/>
<stop offset="0.7543" stop-color="#84662A"/>
<stop offset="1" stop-color="#695326"/>
</linearGradient>
</defs>
</svg>
