<svg width="69" height="69" viewBox="0 0 69 69" fill="none" xmlns="http://www.w3.org/2000/svg">
<path d="M38.9216 9.12976H62.9791C63.9755 9.12976 63.9755 9.12976 63.9755 10.1261C63.9755 24.4723 63.9755 38.8168 63.9755 53.1597C63.9755 56.7691 61.5145 59.2426 57.925 59.2426H10.6992C7.27661 59.2426 4.74083 56.7367 4.73834 53.3291C4.73834 39.9062 4.73834 26.4833 4.73834 13.0605C4.73834 12.084 5.08707 11.5385 5.75963 11.4414C5.90761 11.4106 6.06023 11.4097 6.20856 11.4388C6.35689 11.4678 6.49793 11.5261 6.62344 11.6103C6.74894 11.6945 6.85637 11.8029 6.93945 11.9292C7.02252 12.0554 7.07956 12.197 7.10723 12.3456C7.17787 12.7459 7.20874 13.1522 7.1994 13.5587C7.1994 26.7258 7.1994 39.8913 7.1994 53.0551C7.1994 54.0066 7.31647 54.8884 7.9691 55.6357C8.40578 56.1572 8.99268 56.5312 9.64977 56.7069C10.3069 56.8825 11.0021 56.8512 11.6408 56.6171C12.3034 56.3786 12.874 55.9373 13.2715 55.356C13.669 54.7747 13.8733 54.0829 13.8552 53.3789C13.8552 48.8329 13.8552 44.287 13.8552 39.741V10.0315C13.8552 9.13225 13.8552 9.12976 14.8018 9.12976H38.9216ZM38.9017 11.5211H17.2304C16.2565 11.5211 16.2565 11.5211 16.2565 12.5025C16.2565 26.0948 16.2565 39.6895 16.2565 53.2867C16.2729 54.2766 16.0453 55.2553 15.5939 56.1364C15.2202 56.8463 15.2252 56.8513 16.0248 56.8513C29.9193 56.8513 43.8138 56.8338 57.7083 56.8687C59.8505 56.8687 61.5369 55.4813 61.5269 53.0999C61.4721 39.5467 61.4995 25.9959 61.4995 12.4427C61.4995 11.5236 61.4995 11.5211 60.5754 11.5211H38.9017Z" fill="#A88030"/>
<path d="M11.7304 31.9294V52.8957C11.7304 54.0863 11.282 54.7265 10.47 54.7041C9.70029 54.6817 9.25939 54.0315 9.25939 52.8957C9.25939 38.9198 9.25939 24.9423 9.25939 10.9631C9.25361 10.6418 9.28962 10.3211 9.3665 10.0091C9.41986 9.75257 9.56374 9.52384 9.77184 9.36468C9.97994 9.20552 10.2384 9.12655 10.4999 9.14221C10.7607 9.13495 11.0161 9.21691 11.224 9.37453C11.4319 9.53215 11.5798 9.75599 11.6432 10.0091C11.7248 10.3421 11.7533 10.6859 11.7279 11.0279L11.7304 31.9294Z" fill="#A88030"/>
<path d="M47.9762 45.6096H39.6788C38.8643 45.6096 38.8344 45.5772 38.8319 44.7901V30.4572C38.8319 29.6003 38.8543 29.5779 39.6838 29.5779C45.2536 29.5779 50.8233 29.5779 56.3931 29.5779C56.971 29.5779 57.1777 29.7423 57.1752 30.3426C57.1553 35.1833 57.1553 40.0249 57.1752 44.8673C57.1752 45.4701 56.961 45.632 56.3906 45.6146C53.5833 45.5996 50.776 45.6096 47.9762 45.6096ZM48.0584 31.9767C46.0432 31.9767 44.028 31.9767 42.0128 31.9767C41.4823 31.9767 41.3004 32.1485 41.3029 32.6766C41.3179 35.9564 41.3179 39.2361 41.3029 42.5158C41.3029 43.034 41.4599 43.2332 42.0029 43.2307C46.0532 43.2125 50.1043 43.2125 54.1562 43.2307C54.6394 43.2307 54.7839 43.0614 54.7814 42.5931C54.7814 39.2701 54.764 35.9472 54.7814 32.6293C54.7814 32.1037 54.5921 31.9742 54.1039 31.9792C52.0837 31.9866 50.0686 31.9767 48.0534 31.9767H48.0584Z" fill="#A88030"/>
<path d="M38.9141 15.9425H56.2112C57.1478 15.9425 57.1553 15.9425 57.1503 16.8567C57.1503 18.5729 57.3197 18.3363 55.6906 18.3363C44.3734 18.3363 33.0571 18.3363 21.7415 18.3363C20.7003 18.3363 20.6978 18.3363 20.6978 17.3399C20.6978 15.7557 20.5932 15.955 22.0679 15.955C27.6858 15.955 33.3012 15.955 38.9141 15.955V15.9425Z" fill="#A88030"/>
<path d="M38.8468 25.1565C33.1027 25.1565 27.3594 25.1565 21.617 25.1565C20.7028 25.1565 20.6953 25.1565 20.6978 24.2199C20.6978 22.5386 20.5683 22.7652 22.1276 22.7652C33.4863 22.7652 44.845 22.7652 56.2037 22.7652C57.1478 22.7652 57.1553 22.7652 57.1503 23.7417C57.1503 25.3732 57.2898 25.1565 55.7554 25.159C50.1209 25.1623 44.4847 25.1615 38.8468 25.1565Z" fill="#A88030"/>
<path d="M38.9365 52.4274H21.6394C20.7078 52.4274 20.7003 52.4274 20.6978 51.5107C20.6978 49.7446 20.6032 50.0386 22.17 50.0361C33.4872 50.0361 44.8027 50.0361 56.1166 50.0361C57.1503 50.0361 57.1553 50.0361 57.1503 51.0449C57.1503 52.6067 57.2873 52.4274 55.7803 52.4299C50.1657 52.4332 44.5511 52.4324 38.9365 52.4274Z" fill="#A88030"/>
<path d="M27.665 29.5779C29.6777 29.5779 31.6904 29.5979 33.7031 29.5779C34.2835 29.5779 34.5076 29.7473 34.4952 30.3427C34.4578 32.313 34.6671 31.9717 32.8586 31.9792C29.0898 31.9991 25.321 31.9792 21.5523 31.9792C20.6904 31.9792 20.6779 31.9792 20.6829 31.1298C20.6829 29.3288 20.4787 29.6004 22.2024 29.5854C24.0233 29.5655 25.8441 29.5779 27.665 29.5779Z" fill="#A88030"/>
<path d="M27.5305 38.7945C25.5153 38.7945 23.5026 38.772 21.4875 38.7945C20.8573 38.7945 20.6704 38.5777 20.6854 37.9749C20.7302 36.1366 20.4961 36.3957 22.2497 36.3907C26.021 36.3907 29.7923 36.3907 33.5636 36.3907C34.4678 36.3907 34.4852 36.3907 34.4852 37.265C34.4852 39.061 34.6197 38.7596 32.9906 38.7845C31.1723 38.8044 29.3514 38.7945 27.5305 38.7945Z" fill="#A88030"/>
<path d="M27.5504 45.6096C25.5128 45.6096 23.4777 45.5947 21.4426 45.6096C20.8846 45.6096 20.6953 45.4278 20.6953 44.8623C20.7177 42.8547 20.5284 43.2158 22.3045 43.2059C26.0757 43.1859 29.847 43.2059 33.6158 43.2059C34.4677 43.2059 34.4902 43.2208 34.4877 44.0603C34.4877 45.8811 34.6321 45.5822 32.9483 45.5972C31.1473 45.6221 29.3464 45.6096 27.5504 45.6096Z" fill="#A88030"/>
</svg>
