<svg width="82" height="82" viewBox="0 0 82 82" fill="none" xmlns="http://www.w3.org/2000/svg">
<path d="M11.8094 67.8246C12.0629 66.3986 12.5699 65.0296 13.3065 63.7825C14.4255 61.9484 16.0871 60.5076 18.0612 59.6596C18.5163 59.462 18.5822 59.3602 18.3306 58.8662C17.8238 57.9442 17.5511 56.912 17.5365 55.86C17.5219 54.8081 17.7658 53.7686 18.2468 52.833C18.7174 51.9273 19.4796 51.2068 20.4103 50.7879C21.341 50.369 22.3858 50.2762 23.3758 50.5245C25.5405 51.0605 26.9448 52.842 27.0136 55.1385C27.0555 56.5397 27.0136 57.923 26.1603 59.1356C25.9148 59.4859 26.2741 59.5039 26.4597 59.5788C27.8103 60.1608 29.027 61.0137 30.0347 62.0848C30.5889 62.6629 31.0678 63.3088 31.4599 64.0071C31.6485 64.3484 31.7593 64.3065 31.936 64.0071C33.0691 62.0229 34.8304 60.4723 36.9422 59.5997C37.3823 59.4171 37.2745 59.2614 37.1038 58.938C36.5934 58.0187 36.3132 56.9895 36.2872 55.9383C36.2611 54.8872 36.4899 53.8453 36.9541 52.9018C37.4099 52.0007 38.1522 51.2764 39.0643 50.8429C39.9764 50.4093 41.0066 50.291 41.9933 50.5065C43.0382 50.7222 43.9789 51.2864 44.6611 52.1068C45.3433 52.9271 45.7265 53.9549 45.7479 55.0217C45.8198 56.4589 45.7988 57.8871 44.9095 59.1326C44.7419 59.3692 44.8646 59.462 45.0712 59.5488C47.2584 60.443 49.0801 62.0485 50.2421 64.1059C50.4008 64.3813 50.5026 64.2945 50.6283 64.0789C51.7829 62.0402 53.5924 60.4512 55.7633 59.5698C56.2004 59.3901 55.9729 59.1895 55.8381 58.9709C54.7004 57.1026 54.8201 53.9498 56.0896 52.2491C56.6463 51.5297 57.3997 50.9872 58.2585 50.6874C59.1174 50.3877 60.0447 50.3436 60.9281 50.5604C61.8234 50.7771 62.6329 51.2577 63.2517 51.94C63.8705 52.6223 64.27 53.4748 64.3983 54.3869C64.6019 56.0277 64.6439 57.6625 63.6528 59.1207C63.4282 59.45 63.6827 59.5009 63.8893 59.5907C65.7591 60.38 67.3622 61.6907 68.5074 63.3662C69.6526 65.0418 70.2914 67.0115 70.3477 69.0402C70.3809 69.3247 70.3293 69.6126 70.1993 69.8678C70.0693 70.123 69.8667 70.334 69.6171 70.4744C50.5225 70.4744 31.429 70.4744 12.3364 70.4744C11.9082 70.4744 11.7855 70.3786 11.8094 69.9474C11.8394 69.2408 11.8094 68.5282 11.8094 67.8246ZM22.3368 68.124H29.8221C30.1605 68.124 30.397 68.145 30.3162 67.6449C29.8461 64.6987 26.9238 61.7705 23.9896 61.3183C23.5704 61.2555 23.4985 61.3902 23.5075 61.7525C23.5255 62.4561 23.5075 63.1597 23.5075 63.8634C23.5075 64.6388 22.9805 65.1927 22.3098 65.1778C21.6392 65.1628 21.1631 64.6358 21.1541 63.8843C21.1541 63.1987 21.1272 62.513 21.1541 61.8303C21.1751 61.3692 21.0583 61.2315 20.5762 61.3333C17.639 61.8992 14.9593 64.561 14.3664 67.5132C14.2706 67.9893 14.3664 68.139 14.8724 68.133C17.3516 68.112 19.8457 68.127 22.3368 68.127V68.124ZM41.0531 68.124C43.5652 68.124 46.0743 68.124 48.5863 68.124C48.9965 68.124 49.1013 68.0222 49.0295 67.6C48.5145 64.6328 45.6581 61.7794 42.7268 61.3124C42.4095 61.2615 42.2148 61.2525 42.2268 61.6657C42.2478 62.4262 42.2448 63.1867 42.2268 63.9472C42.2292 64.106 42.2 64.2636 42.1408 64.411C42.0817 64.5584 41.9939 64.6926 41.8824 64.8057C41.771 64.9188 41.6382 65.0086 41.4917 65.07C41.3452 65.1313 41.188 65.1628 41.0292 65.1628C40.712 65.1557 40.4106 65.0231 40.1912 64.7941C39.9717 64.5651 39.852 64.2584 39.8585 63.9412C39.8585 63.2376 39.8225 62.534 39.8585 61.8303C39.8884 61.3124 39.7057 61.2315 39.2357 61.3273C36.2984 61.9262 33.6756 64.546 33.0678 67.4833C32.957 68.0132 33.1007 68.124 33.6157 68.118C36.1068 68.112 38.58 68.127 41.0531 68.124ZM59.7874 68.124C62.2965 68.124 64.8085 68.124 67.3176 68.124C67.7308 68.124 67.8326 68.0192 67.7608 67.597C67.2458 64.6299 64.3894 61.7764 61.4581 61.3094C61.1407 61.2585 60.9491 61.2525 60.9611 61.6627C60.979 62.4232 60.979 63.1837 60.9611 63.9442C60.9611 64.2563 60.8371 64.5556 60.6164 64.7762C60.3958 64.9969 60.0965 65.1209 59.7844 65.1209C59.4723 65.1209 59.173 64.9969 58.9523 64.7762C58.7317 64.5556 58.6077 64.2563 58.6077 63.9442C58.6077 63.2406 58.5718 62.534 58.6077 61.8333C58.6376 61.3124 58.452 61.2345 57.9849 61.3303C55.0477 61.9291 52.4248 64.549 51.817 67.4863C51.7062 68.0162 51.8529 68.127 52.3649 68.121C54.8411 68.112 57.3142 68.127 59.7874 68.124V68.124ZM20.0822 55.7343C20.0822 56.0337 20.0822 56.3062 20.0822 56.5906C20.1237 57.1579 20.3783 57.6884 20.7948 58.0756C21.2114 58.4629 21.7591 58.6781 22.3278 58.6781C22.8966 58.6781 23.4442 58.4629 23.8608 58.0756C24.2774 57.6884 24.532 57.1579 24.5734 56.5906C24.5974 56.0397 24.5974 55.4858 24.5734 54.9379C24.5746 54.3604 24.3539 53.8045 23.9569 53.3852C23.5599 52.9659 23.0169 52.7151 22.4402 52.6847C21.8636 52.6544 21.2973 52.8467 20.8584 53.222C20.4196 53.5973 20.1417 54.1269 20.0822 54.7013C20.0593 55.0453 20.0593 55.3903 20.0822 55.7343V55.7343ZM38.8225 55.7493H38.7985C38.7985 56.0157 38.7985 56.2822 38.7985 56.5487C38.8425 57.1158 39.0996 57.6452 39.518 58.0306C39.9363 58.4159 40.4851 58.6287 41.0539 58.626C41.6227 58.6234 42.1694 58.4055 42.5842 58.0163C42.9989 57.627 43.251 57.0952 43.2897 56.5277C43.2897 56.0157 43.2897 55.5007 43.2897 54.9888C43.279 54.4277 43.059 53.891 42.6727 53.4839C42.2865 53.0769 41.7621 52.8289 41.2024 52.7888C40.6427 52.7486 40.0882 52.9192 39.6479 53.267C39.2075 53.6148 38.9131 54.1146 38.8225 54.6684C38.794 55.0281 38.794 55.3895 38.8225 55.7493V55.7493ZM57.5328 55.5966C57.5328 56.0157 57.5328 56.3002 57.5328 56.5846C57.5715 57.1521 57.8236 57.6839 58.2384 58.0732C58.6531 58.4624 59.1999 58.6802 59.7687 58.6829C60.3375 58.6856 60.8862 58.4728 61.3046 58.0875C61.723 57.7021 61.98 57.1727 62.024 56.6056C62.048 56.0726 62.042 55.5397 62.024 55.0067C62.0087 54.4599 61.7963 53.937 61.4261 53.5343C61.0558 53.1316 60.5526 52.8761 60.009 52.815C59.0239 52.6593 57.9819 53.351 57.6286 54.375C57.5335 54.7747 57.5011 55.1869 57.5328 55.5966Z" fill="#A88030"/>
<path d="M46.2479 11.9302C51.302 11.8015 55.9459 15.9603 55.913 21.6642C55.9192 22.5026 55.7867 23.3362 55.5207 24.1313C55.3411 24.6553 55.5207 24.7302 55.9968 24.7302C57.4041 24.7062 58.8143 24.7092 60.2215 24.7302C65.078 24.784 69.2848 29.0866 69.4405 33.9371C69.5115 36.3581 68.6723 38.7177 67.0887 40.5502C65.505 42.3828 63.2919 43.5551 60.8862 43.8357C60.7186 43.8491 60.5575 43.9069 60.4196 44.0032C60.2817 44.0995 60.172 44.2308 60.1018 44.3836C59.5269 45.4136 58.9341 46.4346 58.3352 47.4496C57.6945 48.5395 56.6615 48.5395 56.0178 47.4496C55.4579 46.4975 54.88 45.5543 54.374 44.5752C54.2711 44.3352 54.0925 44.1353 53.8655 44.0061C53.6385 43.8769 53.3754 43.8255 53.1165 43.8597C51.2331 43.8986 49.3498 43.8776 47.4635 43.8597C46.2148 43.8749 44.9759 43.638 43.8209 43.1631C42.6659 42.6883 41.6186 41.9852 40.7417 41.0961C40.3704 40.7278 40.1279 40.6979 39.6908 40.9853C38.1263 41.9892 36.3007 42.5099 34.4421 42.4824C32.5398 42.5003 30.6375 42.5003 28.7352 42.4824C28.5497 42.4657 28.3635 42.5073 28.2026 42.6011C28.0417 42.695 27.9139 42.8366 27.837 43.0063C27.2801 44.0243 26.6903 45.0274 26.1004 46.0274C25.4657 47.1053 24.4207 47.1143 23.783 46.0454C23.1452 44.9765 22.5554 43.9495 21.9565 42.8806C21.8841 42.7379 21.7749 42.6171 21.6401 42.5308C21.5053 42.4444 21.35 42.3957 21.19 42.3895C16.5132 41.9524 12.8065 37.7965 12.6777 33.1077C12.638 30.8154 13.4145 28.5836 14.8685 26.8109C16.3225 25.0382 18.3593 23.8402 20.6152 23.4307C21.6693 23.2738 22.7366 23.2227 23.8009 23.278C24.3339 23.293 24.5165 23.1253 24.4447 22.5864C24.2972 21.3338 24.3991 20.0645 24.7446 18.8516C25.09 17.6386 25.672 16.506 26.4572 15.5191C27.2424 14.5321 28.2151 13.7103 29.3193 13.1011C30.4236 12.4918 31.6375 12.1071 32.8911 11.9692C33.6109 11.9053 34.3345 11.8953 35.0559 11.9392C35.3565 11.9562 35.6391 12.0881 35.8452 12.3076C36.0513 12.5271 36.1652 12.8174 36.1633 13.1185C36.1613 13.4196 36.0438 13.7085 35.8349 13.9253C35.626 14.1422 35.3417 14.2705 35.0409 14.2836C34.128 14.2614 33.2154 14.3387 32.3192 14.5142C28.876 15.3226 26.6483 18.3736 26.804 22.0534C26.9388 25.2032 29.6035 28.0896 32.8432 28.5896C32.9414 28.6114 33.0423 28.6184 33.1426 28.6105C34.4301 28.4519 35.2385 29.0447 35.7146 30.2034C35.8822 30.6046 36.1697 30.952 36.3583 31.3472C36.6038 31.8592 36.7535 31.6945 36.9571 31.3202C37.2565 30.7484 37.6338 30.2124 37.9123 29.6315C38.2656 28.895 38.8345 28.6345 39.6159 28.6405C41.8046 28.6405 43.9933 28.5926 46.1791 28.6405C49.7451 28.7423 52.862 26.0805 53.4458 22.5025C54.0626 18.7359 51.1074 14.7657 47.3198 14.3735C46.6551 14.3046 45.9934 14.2836 45.3287 14.2717C45.1712 14.282 45.0133 14.2596 44.8649 14.2058C44.7165 14.152 44.5809 14.068 44.4666 13.9591C44.3523 13.8502 44.2619 13.7187 44.2011 13.5731C44.1402 13.4274 44.1103 13.2707 44.1131 13.1129C44.1131 12.4063 44.5862 11.9392 45.3497 11.9153C45.6401 11.9213 45.9455 11.9302 46.2479 11.9302ZM57.8502 27.1524C56.6525 27.1524 55.6495 27.1524 54.6614 27.1524C54.4741 27.1394 54.2866 27.1738 54.116 27.2523C53.9454 27.3307 53.7973 27.4508 53.6853 27.6015C52.3932 29.1724 50.6346 30.2913 48.6642 30.7963C47.3168 31.1556 45.9455 31.0777 44.5802 31.0957C44.1939 31.0957 44.0472 31.1765 44.1011 31.6196C44.4458 34.0433 43.8278 36.5056 42.3795 38.4792C42.131 38.8235 42.0501 39.078 42.4064 39.3984C43.7029 40.596 45.194 41.3745 46.9935 41.4464C47.8109 41.4763 48.6283 41.4614 49.4486 41.4643C51.0834 41.4643 52.7212 41.4643 54.359 41.4643C54.6746 41.4483 54.9876 41.5273 55.2578 41.6912C55.5279 41.8551 55.7426 42.0963 55.874 42.3835C56.2064 43.0273 56.6016 43.6351 56.9519 44.2669C57.1256 44.5663 57.2514 44.5513 57.407 44.2669C57.7065 43.7159 58.0867 43.2009 58.3412 42.6291C58.7275 41.7608 59.3712 41.4494 60.2844 41.4314C63.3923 41.4015 66.9913 38.7008 67.0392 34.2874C67.0293 32.6654 66.471 31.0943 65.455 29.8299C64.439 28.5654 63.025 27.6819 61.4431 27.3231C60.1826 27.0237 58.9011 27.2153 57.8502 27.1524ZM31.3282 40.0272H34.6397C35.9613 40.029 37.2566 39.6574 38.3763 38.9553C39.5964 38.1973 40.5619 37.0919 41.1488 35.781C41.7357 34.47 41.9172 33.0135 41.6699 31.5987C41.6647 31.4252 41.5954 31.2599 41.4753 31.1346C41.116 30.8591 39.8225 31.1346 39.589 31.5208C38.9662 32.5897 38.3644 33.6736 37.7206 34.7276C37.1218 35.7036 36.0709 35.6737 35.49 34.6826C34.9091 33.6916 34.3103 32.6826 33.7564 31.6616C33.6698 31.4754 33.5356 31.3154 33.3674 31.1976C33.1991 31.0799 33.0029 31.0086 32.7983 30.9909C29.5976 30.5567 27.2023 28.91 25.5675 26.1075C25.5019 25.9722 25.3964 25.8603 25.2652 25.7869C25.134 25.7135 24.9835 25.6822 24.8339 25.6973C23.8638 25.7152 22.8907 25.6733 21.9236 25.7122C20.0633 25.7855 18.3052 26.583 17.0248 27.9345C15.7443 29.286 15.0428 31.0845 15.07 32.946C15.1 36.9043 18.2199 39.9284 22.1871 40.0332C22.4636 40.0234 22.7371 40.0922 22.9761 40.2316C23.2151 40.371 23.4097 40.5752 23.5374 40.8206C23.8967 41.4494 24.283 42.0602 24.6183 42.7009C24.8668 43.174 25.0195 43.0932 25.2381 42.7009C25.5645 42.1021 25.9387 41.5212 26.2561 40.9044C26.3905 40.6162 26.6117 40.3771 26.8888 40.2209C27.1658 40.0646 27.4848 39.999 27.8011 40.0332C28.9688 40.0571 30.1485 40.0391 31.3282 40.0391V40.0272Z" fill="#A88030"/>
<path d="M34.6457 20.2898C34.882 20.2963 35.1112 20.3727 35.3042 20.5093C35.4973 20.6459 35.6455 20.8365 35.7304 21.0572C35.8152 21.2779 35.8329 21.5188 35.781 21.7495C35.7292 21.9802 35.6102 22.1904 35.4391 22.3536C35.268 22.5169 35.0524 22.6257 34.8195 22.6666C34.5866 22.7075 34.3468 22.6785 34.1304 22.5833C33.9139 22.4881 33.7305 22.331 33.6032 22.1317C33.4759 21.9324 33.4104 21.6999 33.4151 21.4635C33.434 21.1486 33.5714 20.8525 33.7997 20.6348C34.028 20.417 34.3302 20.2938 34.6457 20.2898Z" fill="#A88030"/>
<path d="M45.6431 20.2898C45.8791 20.2898 46.1098 20.3596 46.3062 20.4903C46.5027 20.621 46.6562 20.8068 46.7474 21.0244C46.8387 21.242 46.8636 21.4818 46.819 21.7135C46.7745 21.9452 46.6625 22.1586 46.4971 22.3269C46.3317 22.4952 46.1202 22.6109 45.8893 22.6595C45.6584 22.708 45.4183 22.6873 45.1991 22.5998C44.9799 22.5124 44.7915 22.3622 44.6574 22.168C44.5233 21.9738 44.4496 21.7443 44.4454 21.5084C44.4528 21.1911 44.5807 20.8885 44.8032 20.6622C45.0256 20.4358 45.326 20.3026 45.6431 20.2898V20.2898Z" fill="#A88030"/>
<path d="M38.9572 21.4995C38.9608 21.2677 39.0325 21.0422 39.1635 20.8509C39.2945 20.6597 39.4789 20.5113 39.6937 20.4243C39.9085 20.3372 40.1442 20.3154 40.3714 20.3614C40.5985 20.4075 40.8071 20.5195 40.971 20.6834C41.1348 20.8473 41.2468 21.0558 41.2929 21.283C41.339 21.5101 41.3172 21.7458 41.2301 21.9607C41.1431 22.1755 40.9947 22.3599 40.8034 22.4908C40.6122 22.6218 40.3866 22.6936 40.1549 22.6971C39.8372 22.6971 39.5326 22.5709 39.308 22.3463C39.0834 22.1217 38.9572 21.8171 38.9572 21.4995Z" fill="#A88030"/>
<path d="M40.1159 14.2865C39.8839 14.2824 39.6582 14.2097 39.4674 14.0777C39.2765 13.9457 39.129 13.7601 39.0433 13.5444C38.9576 13.3287 38.9377 13.0925 38.9859 12.8655C39.0341 12.6385 39.1484 12.4308 39.3144 12.2686C39.4803 12.1064 39.6906 11.9968 39.9186 11.9538C40.1467 11.9107 40.3824 11.9361 40.5961 12.0266C40.8097 12.1172 40.9919 12.2689 41.1195 12.4627C41.2472 12.6565 41.3147 12.8838 41.3136 13.1158C41.317 13.2728 41.2882 13.4288 41.2289 13.5742C41.1695 13.7196 41.081 13.8512 40.9687 13.961C40.8564 14.0707 40.7228 14.1563 40.5761 14.2123C40.4294 14.2683 40.2728 14.2936 40.1159 14.2865V14.2865Z" fill="#A88030"/>
</svg>
