<svg width="82" height="82" viewBox="0 0 82 82" fill="none" xmlns="http://www.w3.org/2000/svg">
<path d="M13 56.8485C13.3381 55.2456 13.9377 53.7647 15.043 52.525C16.8097 50.5441 19.0467 49.6221 21.6718 49.5853C22.6433 49.5721 23.6148 49.5706 24.5864 49.5882C24.9979 49.5956 25.139 49.4662 25.1846 49.0294C25.3036 47.8882 25.0126 47.125 23.9691 46.4044C21.6968 44.8353 20.3622 42.5471 19.7846 39.8382C19.7067 39.4721 19.567 39.225 19.2025 39.0529C18.109 38.5382 17.3947 37.6235 16.8597 36.5809C15.9631 34.8324 15.3399 33.0279 16.0836 31.0456C16.1659 30.8265 16.0924 30.7074 15.9264 30.5838C15.1327 30 14.9328 29.2235 15.1885 28.2956C15.334 27.7662 15.4487 27.2265 15.6045 26.7C15.897 25.7074 16.5466 25.2294 17.5872 25.2132C18.7807 25.1941 18.7675 25.1912 19.0291 24.0191C19.2525 23.0177 19.4156 22.0015 19.764 21.0309C20.6664 18.5191 23.1283 16.7735 25.796 16.7456C26.0165 16.7427 26.2369 16.7279 26.4559 16.7471C26.8528 16.7824 27.0189 16.6632 27.0777 16.2177C27.3261 14.3632 28.9369 13.0029 30.8168 13C32.7231 12.9971 34.3134 14.3177 34.5824 16.1824C34.6544 16.6809 34.8911 16.7677 35.3173 16.75C37.3735 16.6632 39.1329 17.3427 40.5556 18.8412C41.3817 19.7132 41.9064 20.7515 42.1739 21.9206C42.3914 22.8677 42.6163 23.8132 42.8088 24.7647C42.8764 25.1015 43.0322 25.2074 43.3644 25.2191C45.572 25.2985 45.7602 25.4574 46.3011 27.5927C46.3819 27.9118 46.473 28.2309 46.5377 28.5529C46.695 29.3397 46.4789 30.0044 45.8484 30.5162C45.6779 30.6544 45.4809 30.75 45.5853 31.0412C46.3834 33.2632 45.6088 35.2191 44.5079 37.0985C43.9803 37.9985 43.2674 38.7382 42.2812 39.1544C42.0107 39.2691 41.9681 39.4794 41.9196 39.7162C41.4919 41.7544 40.5792 43.5456 39.1858 45.0941C38.5303 45.8221 37.7851 46.4412 36.9635 46.9662C36.6651 47.1559 36.5299 47.3794 36.5519 47.7324C36.574 48.0794 36.5549 48.4294 36.5563 48.7779C36.5578 49.5809 36.5593 49.5735 37.3383 49.5853C38.5464 49.6044 39.7781 49.4279 40.9584 49.6853C41.9916 49.9103 42.3517 49.4912 42.8147 48.6426C45.1047 44.4353 48.6645 41.9191 53.4178 41.3029C61.0592 40.3132 67.9584 45.4015 69.2004 52.9706C70.5115 60.9588 65.1555 67.8368 57.8669 69.2118C57.5435 69.2721 57.2216 69.3353 56.8997 69.3971C55.7989 69.3971 54.6995 69.3971 53.5986 69.3971C51.9318 69.1118 50.3077 68.6882 48.8012 67.8941C48.6057 67.7912 48.4602 67.8118 48.3441 68.0162C47.9399 68.7235 47.2961 69.1221 46.5583 69.3985C36.0698 69.3985 25.5814 69.3985 15.093 69.3985C14.0538 69.0412 13.3542 68.3456 13 67.3059C13 63.8206 13 60.3353 13 56.8485ZM30.808 67.4824C35.6289 67.4824 40.4484 67.4824 45.2693 67.4824C45.5809 67.4824 45.8954 67.4926 46.1908 67.3706C46.7391 67.1456 46.8228 66.6676 46.3731 66.3029C45.5 65.5956 44.7019 64.8147 44.0288 63.9147C41.4302 60.4441 40.5718 56.5765 41.4419 52.3309C41.5301 51.9015 41.4875 51.7162 40.9878 51.6676C39.5224 51.5294 38.0585 51.6368 36.5946 51.6029C36.38 51.5985 36.2624 51.7235 36.1757 51.9C35.5157 53.225 34.3575 53.8647 32.9877 54.1985C31.8413 54.4779 31.8501 54.4706 31.8368 55.6838C31.8324 56.0971 31.903 56.3824 32.3101 56.6235C33.5168 57.3412 34.0019 58.7397 33.5506 59.9985C33.0788 61.3118 31.8457 62.0868 30.4391 61.8971C30.0319 61.8426 29.9614 61.9794 29.9673 62.3221C29.979 63.0368 29.9776 63.7529 29.9673 64.4677C29.957 65.2103 29.569 65.6765 28.9752 65.6794C28.3696 65.6824 27.9522 65.2265 27.9478 64.4985C27.9375 62.7015 27.9287 60.9044 27.9507 59.1074C27.9639 58.1368 28.3373 57.275 29.1662 56.7632C29.7071 56.4294 29.8908 56.0588 29.8188 55.4779C29.7968 55.2971 29.7997 55.1103 29.8188 54.9279C29.86 54.5176 29.6968 54.3676 29.2765 54.3029C27.9419 54.0971 26.6235 53.6838 25.9018 52.4794C25.4124 51.6647 24.8465 51.4971 24.0367 51.5926C23.8382 51.6162 23.6339 51.5926 23.4326 51.5971C22.317 51.6176 21.1941 51.5074 20.0917 51.7574C16.9626 52.4691 14.946 55.0412 14.9181 58.3971C14.8975 60.9279 14.9122 63.4588 14.9137 65.9882C14.9137 67.2044 15.1856 67.4765 16.4011 67.4779C21.2029 67.4838 26.0047 67.4824 30.808 67.4824ZM30.8183 30.975C27.939 30.975 25.0611 30.9853 22.1818 30.9647C21.6527 30.9603 21.4851 31.1294 21.4939 31.6588C21.5233 33.2544 21.5101 34.8515 21.5027 36.4471C21.4983 37.3279 21.488 38.2103 21.6497 39.0794C22.5639 44.0044 26.9792 47.2765 31.9397 46.7103C36.5799 46.1809 40.1132 42.2618 40.147 37.5868C40.1617 35.6235 40.1515 33.6603 40.15 31.6971C40.15 30.9824 40.1412 30.975 39.3989 30.975C36.5387 30.9735 33.6785 30.9735 30.8183 30.975ZM34.2899 25.2118C36.2697 25.2118 38.2481 25.2 40.2264 25.2206C40.7467 25.2265 40.8628 25.0632 40.7261 24.5706C40.5321 23.8647 40.4028 23.1412 40.2411 22.4279C39.7414 20.2279 38.0085 18.7868 35.7656 18.7721C32.4306 18.75 29.0957 18.7471 25.7607 18.7779C23.7809 18.7956 22.0583 20.1427 21.5365 22.0353C21.2882 22.9353 21.1309 23.8588 20.9134 24.7677C20.8384 25.0779 20.9001 25.2177 21.2382 25.2162C22.4478 25.2103 23.6575 25.2088 24.8671 25.2177C25.1596 25.2191 25.2434 25.1235 25.2051 24.8235C25.1464 24.3706 25.1317 23.9118 25.2772 23.4618C25.6902 22.1853 26.7705 21.4265 28.2726 21.4103C29.9393 21.3927 31.6076 21.4029 33.2758 21.4103C33.5109 21.4118 33.7564 21.4382 33.9783 21.5118C34.3781 21.6471 34.6074 21.9559 34.6353 22.3779C34.6618 22.7765 34.481 23.0853 34.1341 23.2897C33.9019 23.4265 33.6432 23.4221 33.386 23.4221C31.6458 23.4221 29.9041 23.4162 28.1638 23.4279C27.5818 23.4324 27.1894 23.7677 27.1512 24.2368C27.1115 24.7265 27.4907 25.1265 28.0786 25.1985C28.2594 25.2206 28.4446 25.2132 28.6283 25.2132C30.5155 25.2132 32.4027 25.2118 34.2899 25.2118ZM30.7668 28.9618C35.1674 28.9618 39.5679 28.9559 43.9685 28.9691C44.4491 28.9706 44.6182 28.8397 44.4344 28.3706C44.3874 28.2515 44.3668 28.1235 44.336 27.9985C44.1287 27.1662 44.1302 27.1662 43.2483 27.1662C35.0895 27.1662 26.9307 27.1618 18.7719 27.1691C17.305 27.1706 17.6519 26.9485 17.2359 28.3515C17.0875 28.8529 17.2183 28.9721 17.7313 28.9706C22.076 28.9544 26.4221 28.9618 30.7668 28.9618ZM55.2315 60.0706C55.158 60.0706 55.0845 60.0676 55.0125 60.0706C54.3026 60.1059 53.4972 59.8368 52.9078 60.1809C52.3037 60.5338 52.0597 61.3456 51.6261 61.9338C51.4365 62.1912 51.3998 62.4485 51.4865 62.7588C51.8525 64.0632 52.2052 65.3706 52.5506 66.6794C52.6462 67.0412 52.8269 67.2279 53.2164 67.2868C54.5466 67.4868 55.8709 67.4882 57.204 67.3C57.6655 67.2353 57.8683 67.025 57.9697 66.5956C58.1417 65.8662 58.3504 65.1441 58.5547 64.4221C59.1603 62.2735 59.1559 62.2779 57.8815 60.4441C57.6919 60.1706 57.4832 60.0574 57.1555 60.0662C56.5146 60.0838 55.8723 60.0706 55.2315 60.0706ZM54.2321 48.8794C54.2321 48.3603 54.2291 48.0132 54.2335 47.6647C54.2365 47.4515 54.1806 47.2735 54.0057 47.1338C52.8607 46.2221 51.7172 45.3074 50.5767 44.3897C50.3944 44.2426 50.2239 44.2471 50.0211 44.3456C48.7101 44.9868 47.546 45.8294 46.5245 46.8735C46.2937 47.1103 46.2437 47.3441 46.3731 47.6632C46.6979 48.4588 47.0948 49.2471 47.2711 50.0779C47.5901 51.5897 48.5219 52.3206 49.9594 52.5941C50.268 52.6529 50.5076 52.6721 50.7751 52.4809C51.5335 51.9382 52.2831 51.3721 53.0871 50.9029C53.9587 50.3956 54.529 49.7971 54.2321 48.8794ZM56.2604 48.6985C56.2604 48.9191 56.2868 49.1427 56.256 49.3588C56.1781 49.9029 56.3956 50.2471 56.8659 50.5221C57.4186 50.8441 57.9977 51.1706 58.4445 51.6162C59.5542 52.7176 60.7285 52.7691 62.0513 52.0735C62.3659 51.9088 62.5849 51.7441 62.7083 51.4044C63.1537 50.1809 63.6034 48.9588 64.0914 47.7529C64.256 47.3441 64.1811 47.0676 63.8842 46.7794C62.9009 45.8294 61.8206 45.025 60.5977 44.4044C60.2611 44.2338 60.0333 44.2853 59.7599 44.5118C58.956 45.1794 58.1696 45.8779 57.3083 46.4632C56.4838 47.0235 56.0061 47.6676 56.2604 48.6985ZM46.1747 61.3338C46.5877 61.3515 47.155 61.1824 47.6768 61.2691C49.3509 61.5441 50.2974 60.7221 50.9779 59.3368C51.1249 59.0353 51.2175 58.7971 51.0926 58.4691C50.8501 57.8368 50.6399 57.1926 50.4209 56.5515C49.7433 54.5632 49.7433 54.5632 47.7606 53.9441C47.7429 53.9382 47.7253 53.9324 47.7091 53.9265C47.471 53.8294 47.2623 53.8574 47.0389 54.0059C45.866 54.7882 44.6887 55.5632 43.5055 56.3279C43.2336 56.5029 43.1675 56.7059 43.2189 57.0206C43.3879 58.0559 43.6554 59.0588 44.0626 60.0265C44.6226 61.3603 44.6196 61.3618 46.1747 61.3338ZM64.5015 61.2118C64.5015 61.2574 64.5015 61.3044 64.5015 61.35C64.6852 61.35 64.8763 61.3147 65.0497 61.3559C65.6318 61.4926 65.8934 61.1941 66.1256 60.7088C66.6885 59.5235 67.0692 58.2897 67.2809 56.9956C67.3338 56.6706 67.2353 56.4824 66.9707 56.3132C66.2608 55.8588 65.5627 55.3853 64.8586 54.9221C63.1067 53.7662 63.1096 53.7735 61.143 54.4765C60.8329 54.5868 60.6653 54.7662 60.5698 55.0721C60.3728 55.7015 60.2391 56.3735 59.9202 56.9382C59.0985 58.4 59.4248 59.6235 60.489 60.7882C60.7153 61.0368 60.9181 61.2162 61.2635 61.2147C62.3424 61.2088 63.4227 61.2118 64.5015 61.2118ZM55.2374 58.0427C55.8238 58.0427 56.4118 58.0309 56.9967 58.0471C57.3245 58.0559 57.495 57.9191 57.5964 57.6118C57.9256 56.6191 58.2666 55.6324 58.6164 54.6471C58.7164 54.3662 58.6885 54.175 58.421 53.9971C57.4744 53.3676 56.5382 52.7221 55.6063 52.0706C55.3359 51.8809 55.1139 51.9103 54.8567 52.0912C53.9396 52.7309 53.018 53.3647 52.0876 53.9868C51.8319 54.1574 51.7628 54.3324 51.8686 54.6279C52.2287 55.6279 52.5727 56.6353 52.9092 57.6441C53.0063 57.9353 53.1753 58.0515 53.4751 58.0456C54.0645 58.0338 54.6509 58.0427 55.2374 58.0427ZM34.531 49.5779C34.531 49.2471 34.5222 48.9177 34.5339 48.5868C34.5442 48.2824 34.4296 48.1985 34.1356 48.2897C31.9368 48.9603 29.7336 48.9632 27.5348 48.2912C27.1967 48.1882 27.11 48.3059 27.1188 48.6235C27.132 49.0824 27.1218 49.5412 27.1218 50C27.1232 51.1279 27.5406 51.7324 28.6107 52.0985C29.691 52.4691 30.8051 52.4868 31.925 52.3529C32.585 52.275 33.2258 52.1265 33.7843 51.7353C34.2649 51.3985 34.5471 50.9529 34.5339 50.3471C34.5266 50.0927 34.531 49.8353 34.531 49.5779ZM42.1812 36.7279C43.3042 35.8044 44.1361 33.4382 43.8406 32.1618C43.7613 31.8191 43.6363 31.4956 43.4115 31.2177C43.1469 30.8897 42.7868 30.9662 42.4443 30.9971C42.2033 31.0191 42.1812 31.2191 42.1812 31.4103C42.1798 33.1529 42.1812 34.8927 42.1812 36.7279ZM19.3172 36.6735C19.3715 36.6588 19.4245 36.6456 19.4788 36.6309C19.4788 34.8779 19.4788 33.1265 19.4788 31.3735C19.4788 31.0971 19.326 30.9985 19.0644 30.975C18.4426 30.9191 18.0825 31.1427 17.9047 31.9485C17.502 33.7809 18.2619 35.2809 19.3172 36.6735ZM57.886 43.4588C56.062 43.0985 54.4084 43.0735 52.6226 43.4706C53.481 44.1588 54.2218 44.7485 54.9596 45.3441C55.1389 45.4882 55.3094 45.525 55.5005 45.3721C56.2516 44.7662 57.0056 44.1647 57.886 43.4588ZM43.1704 54.1588C44.114 53.5324 44.9621 52.9735 45.8057 52.4088C46.0174 52.2677 45.9042 52.0838 45.8425 51.9177C45.6059 51.2838 45.3736 50.6485 45.1223 50.0206C45.0312 49.7927 45.037 49.3985 44.7857 49.3882C44.4947 49.3765 44.455 49.7765 44.3404 50.0088C43.7098 51.275 43.3306 52.6162 43.1704 54.1588ZM50.3988 66.3853C50.1122 65.3382 49.858 64.4074 49.6037 63.475C49.5625 63.3221 49.489 63.1941 49.3097 63.2029C48.4146 63.2456 47.521 63.2882 46.6274 63.3426C46.2041 63.3691 46.3496 63.5676 46.5259 63.75C47.2314 64.475 48.0148 65.1044 48.8732 65.6368C49.32 65.9147 49.7683 66.1926 50.3988 66.3853ZM67.3147 54.1529C67.1471 52.4309 66.6694 50.9338 65.9051 49.525C65.7258 49.1941 65.6038 49.3779 65.5186 49.6C65.2202 50.3868 64.9365 51.1779 64.6279 51.9588C64.5265 52.2162 64.5956 52.3632 64.8131 52.5044C65.6097 53.0206 66.399 53.5485 67.3147 54.1529ZM60.0818 66.4294C61.6751 65.7412 62.9141 64.825 64.0047 63.6971C64.2325 63.4618 64.1267 63.3809 63.8401 63.3397C62.9832 63.2191 62.1175 63.2956 61.2591 63.2221C61.0328 63.2029 60.9284 63.3132 60.874 63.5206C60.6301 64.4382 60.3773 65.3529 60.0818 66.4294ZM30.7948 16.7427C31.2901 16.7427 31.7839 16.7441 32.2793 16.7412C32.4718 16.7397 32.6452 16.7338 32.6202 16.4471C32.5556 15.7147 31.706 14.9956 30.8594 14.9765C30.0217 14.9574 29.1559 15.6632 29.0795 16.4074C29.0545 16.6471 29.1221 16.7485 29.3676 16.7441C29.8409 16.7382 30.3186 16.7427 30.7948 16.7427ZM31.681 59.0779C31.684 58.5706 31.3283 58.2044 30.8344 58.2044C30.3406 58.2044 29.9717 58.5765 29.9776 59.0706C29.9834 59.5647 30.3524 59.9162 30.8594 59.9088C31.343 59.9029 31.6796 59.5632 31.681 59.0779Z" fill="#A88030"/>
<path d="M31.0002 44.0767C29.568 44.0802 28.402 43.6793 27.3668 42.8341C26.783 42.3568 26.6507 41.647 27.0134 41.0899C27.3637 40.5518 27.9583 40.4737 28.5655 40.9059C30.0739 41.9802 31.5793 42.0062 33.0893 40.9094C33.7088 40.4599 34.3269 40.5484 34.6818 41.1228C35.0321 41.6886 34.8857 42.3603 34.2817 42.8584C33.2621 43.6932 32.107 44.0628 31.0002 44.0767Z" fill="#A88030"/>
</svg>
