<svg width="83" height="82" viewBox="0 0 83 82" fill="none" xmlns="http://www.w3.org/2000/svg">
<mask id="path-1-inside-1_1_295" fill="white">
<path d="M8.8812 12.1907C9.66266 11.0679 10.2585 10.8853 11.519 11.4272C13.6329 12.3255 15.7348 13.2746 17.8546 14.1699C18.45 14.3957 18.9732 14.7786 19.3685 15.2778C19.7639 15.777 20.0167 16.374 20.1002 17.0053C20.3158 18.2299 20.6272 19.4395 20.8368 20.6641C20.9386 21.263 21.202 21.4306 21.8009 21.4276C29.0676 21.4067 36.3344 21.4276 43.5981 21.4276C52.4488 21.4276 61.2994 21.4276 70.1501 21.4276C71.1561 21.4276 72.0843 21.6252 72.8298 22.3498C73.2467 22.7455 73.5512 23.2447 73.7122 23.7965C73.8731 24.3483 73.8848 24.9329 73.746 25.4907C72.3068 32.5009 70.8617 39.5212 69.4105 46.5514C68.9674 48.6832 67.8146 49.5934 65.6289 49.5934H27.7233C26.825 49.5934 26.825 49.5934 27.0077 50.4917C27.1903 51.3899 27.4029 52.3061 27.5526 53.2223C27.6424 53.7762 27.852 53.9918 28.4508 53.9828C31.1156 53.9708 33.7804 53.9708 36.4362 53.9708H65.2696C65.6747 53.9347 66.0829 53.9847 66.4673 54.1176C66.7816 54.2466 67.0484 54.4698 67.2309 54.7565C67.4134 55.0432 67.5027 55.3793 67.4866 55.7187C67.4706 56.0582 67.3499 56.3844 67.1411 56.6525C66.9323 56.9207 66.6457 57.1177 66.3206 57.2165C66.016 57.3027 65.6997 57.3401 65.3834 57.3273H27.9807C26.0166 57.3273 24.81 56.3242 24.4177 54.411C21.9246 42.3047 19.4295 30.1964 16.9324 18.0862C16.8985 17.8398 16.7964 17.6078 16.6377 17.4163C16.479 17.2248 16.27 17.0814 16.0342 17.0023C14.067 16.1789 12.1238 15.3016 10.1597 14.4723C9.59767 14.2729 9.13431 13.8642 8.86623 13.3315L8.8812 12.1907ZM46.0833 24.7661H22.5165C21.7021 24.7661 21.6961 24.7661 21.8607 25.5745C23.2201 32.2075 24.5854 38.8395 25.9567 45.4705C26.0735 46.0544 26.2891 46.258 26.9029 46.258C39.6998 46.24 52.4967 46.24 65.2936 46.258C65.9164 46.258 66.126 46.0424 66.2427 45.4705C67.5881 38.8555 68.9444 32.2434 70.3117 25.6344C70.4884 24.7721 70.4794 24.7661 69.5872 24.7661H46.0833Z"/>
</mask>
<path d="M8.8812 12.1907C9.66266 11.0679 10.2585 10.8853 11.519 11.4272C13.6329 12.3255 15.7348 13.2746 17.8546 14.1699C18.45 14.3957 18.9732 14.7786 19.3685 15.2778C19.7639 15.777 20.0167 16.374 20.1002 17.0053C20.3158 18.2299 20.6272 19.4395 20.8368 20.6641C20.9386 21.263 21.202 21.4306 21.8009 21.4276C29.0676 21.4067 36.3344 21.4276 43.5981 21.4276C52.4488 21.4276 61.2994 21.4276 70.1501 21.4276C71.1561 21.4276 72.0843 21.6252 72.8298 22.3498C73.2467 22.7455 73.5512 23.2447 73.7122 23.7965C73.8731 24.3483 73.8848 24.9329 73.746 25.4907C72.3068 32.5009 70.8617 39.5212 69.4105 46.5514C68.9674 48.6832 67.8146 49.5934 65.6289 49.5934H27.7233C26.825 49.5934 26.825 49.5934 27.0077 50.4917C27.1903 51.3899 27.4029 52.3061 27.5526 53.2223C27.6424 53.7762 27.852 53.9918 28.4508 53.9828C31.1156 53.9708 33.7804 53.9708 36.4362 53.9708H65.2696C65.6747 53.9347 66.0829 53.9847 66.4673 54.1176C66.7816 54.2466 67.0484 54.4698 67.2309 54.7565C67.4134 55.0432 67.5027 55.3793 67.4866 55.7187C67.4706 56.0582 67.3499 56.3844 67.1411 56.6525C66.9323 56.9207 66.6457 57.1177 66.3206 57.2165C66.016 57.3027 65.6997 57.3401 65.3834 57.3273H27.9807C26.0166 57.3273 24.81 56.3242 24.4177 54.411C21.9246 42.3047 19.4295 30.1964 16.9324 18.0862C16.8985 17.8398 16.7964 17.6078 16.6377 17.4163C16.479 17.2248 16.27 17.0814 16.0342 17.0023C14.067 16.1789 12.1238 15.3016 10.1597 14.4723C9.59767 14.2729 9.13431 13.8642 8.86623 13.3315L8.8812 12.1907ZM46.0833 24.7661H22.5165C21.7021 24.7661 21.6961 24.7661 21.8607 25.5745C23.2201 32.2075 24.5854 38.8395 25.9567 45.4705C26.0735 46.0544 26.2891 46.258 26.9029 46.258C39.6998 46.24 52.4967 46.24 65.2936 46.258C65.9164 46.258 66.126 46.0424 66.2427 45.4705C67.5881 38.8555 68.9444 32.2434 70.3117 25.6344C70.4884 24.7721 70.4794 24.7661 69.5872 24.7661H46.0833Z" fill="#A88030"/>
<path d="M8.8812 12.1907L8.47081 11.9051L8.38325 12.0309L8.38124 12.1842L8.8812 12.1907ZM11.519 11.4272L11.3215 11.8866L11.3235 11.8874L11.519 11.4272ZM17.8546 14.1699L17.6601 14.6305L17.6686 14.6341L17.6773 14.6374L17.8546 14.1699ZM20.1002 17.0053L19.6045 17.0708L19.6059 17.0815L19.6078 17.092L20.1002 17.0053ZM20.8368 20.6641L21.3297 20.5803L21.3296 20.5798L20.8368 20.6641ZM21.8009 21.4276L21.7994 20.9276L21.7984 20.9276L21.8009 21.4276ZM72.8298 22.3498L72.4813 22.7084L72.4856 22.7125L72.8298 22.3498ZM73.746 25.4907L73.2608 25.3699L73.2583 25.38L73.2562 25.3901L73.746 25.4907ZM69.4105 46.5514L69.9001 46.6531L69.9002 46.6525L69.4105 46.5514ZM27.5526 53.2223L28.0461 53.1423L28.046 53.1417L27.5526 53.2223ZM28.4508 53.9828L28.4486 53.4828L28.4433 53.4829L28.4508 53.9828ZM65.2696 53.9708V54.4708H65.2919L65.314 54.4689L65.2696 53.9708ZM66.4673 54.1175L66.6572 53.655L66.6441 53.6496L66.6306 53.645L66.4673 54.1175ZM66.3206 57.2165L66.4568 57.6977L66.466 57.6949L66.3206 57.2165ZM65.3834 57.3273L65.4037 56.8277L65.3936 56.8273H65.3834V57.3273ZM24.4177 54.411L24.9075 54.3106L24.9075 54.3101L24.4177 54.411ZM16.9324 18.0862L16.4371 18.1544L16.4394 18.1709L16.4427 18.1872L16.9324 18.0862ZM16.0342 17.0023L15.8411 17.4635L15.8579 17.4706L15.8752 17.4764L16.0342 17.0023ZM10.1597 14.4723L10.3542 14.0117L10.3407 14.006L10.3269 14.0011L10.1597 14.4723ZM8.86623 13.3315L8.36627 13.3249L8.36467 13.4471L8.4196 13.5563L8.86623 13.3315ZM21.8607 25.5745L21.3708 25.6743L21.3709 25.6749L21.8607 25.5745ZM25.9567 45.4705L26.447 45.3724L26.4464 45.3692L25.9567 45.4705ZM26.9029 46.258V46.758L26.9036 46.758L26.9029 46.258ZM65.2936 46.258L65.2929 46.758H65.2936V46.258ZM66.2427 45.4705L66.7326 45.5705L66.7327 45.5702L66.2427 45.4705ZM70.3117 25.6344L70.8014 25.7357L70.8016 25.7347L70.3117 25.6344ZM9.29158 12.4764C9.66735 11.9365 9.92813 11.7327 10.1609 11.6646C10.3917 11.5971 10.7182 11.6272 11.3215 11.8866L11.7165 10.9679C11.0593 10.6854 10.4577 10.5358 9.88005 10.7048C9.30438 10.8733 8.87651 11.3222 8.47081 11.9051L9.29158 12.4764ZM11.3235 11.8874C12.3775 12.3353 13.4288 12.796 14.4841 13.2577C15.5386 13.7191 16.5968 14.1814 17.6601 14.6305L18.0491 13.7093C16.9926 13.2631 15.9399 12.8032 14.885 12.3416C13.831 11.8804 12.7744 11.4174 11.7146 10.9671L11.3235 11.8874ZM17.6773 14.6374C18.1883 14.8312 18.6372 15.1598 18.9766 15.5882L19.7605 14.9674C19.3091 14.3974 18.7118 13.9603 18.032 13.7024L17.6773 14.6374ZM18.9766 15.5882C19.3159 16.0167 19.5329 16.529 19.6045 17.0708L20.5959 16.9398C20.5006 16.219 20.2119 15.5374 19.7605 14.9674L18.9766 15.5882ZM19.6078 17.092C19.7175 17.7153 19.8514 18.3335 19.9819 18.9399C20.1132 19.5497 20.2412 20.1482 20.3439 20.7485L21.3296 20.5798C21.2227 19.9555 21.0903 19.3369 20.9595 18.7295C20.8281 18.1188 20.6985 17.5199 20.5926 16.9186L19.6078 17.092ZM20.3438 20.7479C20.4034 21.0983 20.5283 21.4409 20.8303 21.6699C21.12 21.8897 21.4769 21.9293 21.8034 21.9276L21.7984 20.9276C21.526 20.929 21.4517 20.8862 21.4346 20.8732C21.4297 20.8695 21.3719 20.8288 21.3297 20.5803L20.3438 20.7479ZM21.8023 21.9276C29.0682 21.9067 36.3323 21.9276 43.5981 21.9276V20.9276C36.3364 20.9276 29.067 20.9067 21.7994 20.9276L21.8023 21.9276ZM43.5981 21.9276C43.6154 21.9276 43.6327 21.9276 43.65 21.9276C43.6673 21.9276 43.6846 21.9276 43.7018 21.9276C43.7191 21.9276 43.7364 21.9276 43.7537 21.9276C43.771 21.9276 43.7883 21.9276 43.8056 21.9276C43.8228 21.9276 43.8401 21.9276 43.8574 21.9276C43.8747 21.9276 43.892 21.9276 43.9093 21.9276C43.9266 21.9276 43.9439 21.9276 43.9611 21.9276C43.9784 21.9276 43.9957 21.9276 44.013 21.9276C44.0303 21.9276 44.0476 21.9276 44.0649 21.9276C44.0821 21.9276 44.0994 21.9276 44.1167 21.9276C44.134 21.9276 44.1513 21.9276 44.1686 21.9276C44.1859 21.9276 44.2031 21.9276 44.2204 21.9276C44.2377 21.9276 44.255 21.9276 44.2723 21.9276C44.2896 21.9276 44.3069 21.9276 44.3242 21.9276C44.3414 21.9276 44.3587 21.9276 44.376 21.9276C44.3933 21.9276 44.4106 21.9276 44.4279 21.9276C44.4452 21.9276 44.4624 21.9276 44.4797 21.9276C44.497 21.9276 44.5143 21.9276 44.5316 21.9276C44.5489 21.9276 44.5662 21.9276 44.5835 21.9276C44.6007 21.9276 44.618 21.9276 44.6353 21.9276C44.6526 21.9276 44.6699 21.9276 44.6872 21.9276C44.7045 21.9276 44.7217 21.9276 44.739 21.9276C44.7563 21.9276 44.7736 21.9276 44.7909 21.9276C44.8082 21.9276 44.8255 21.9276 44.8427 21.9276C44.86 21.9276 44.8773 21.9276 44.8946 21.9276C44.9119 21.9276 44.9292 21.9276 44.9465 21.9276C44.9638 21.9276 44.981 21.9276 44.9983 21.9276C45.0156 21.9276 45.0329 21.9276 45.0502 21.9276C45.0675 21.9276 45.0848 21.9276 45.102 21.9276C45.1193 21.9276 45.1366 21.9276 45.1539 21.9276C45.1712 21.9276 45.1885 21.9276 45.2058 21.9276C45.223 21.9276 45.2403 21.9276 45.2576 21.9276C45.2749 21.9276 45.2922 21.9276 45.3095 21.9276C45.3268 21.9276 45.3441 21.9276 45.3613 21.9276C45.3786 21.9276 45.3959 21.9276 45.4132 21.9276C45.4305 21.9276 45.4478 21.9276 45.4651 21.9276C45.4823 21.9276 45.4996 21.9276 45.5169 21.9276C45.5342 21.9276 45.5515 21.9276 45.5688 21.9276C45.5861 21.9276 45.6033 21.9276 45.6206 21.9276C45.6379 21.9276 45.6552 21.9276 45.6725 21.9276C45.6898 21.9276 45.7071 21.9276 45.7244 21.9276C45.7416 21.9276 45.7589 21.9276 45.7762 21.9276C45.7935 21.9276 45.8108 21.9276 45.8281 21.9276C45.8454 21.9276 45.8626 21.9276 45.8799 21.9276C45.8972 21.9276 45.9145 21.9276 45.9318 21.9276C45.9491 21.9276 45.9664 21.9276 45.9837 21.9276C46.0009 21.9276 46.0182 21.9276 46.0355 21.9276C46.0528 21.9276 46.0701 21.9276 46.0874 21.9276C46.1047 21.9276 46.1219 21.9276 46.1392 21.9276C46.1565 21.9276 46.1738 21.9276 46.1911 21.9276C46.2084 21.9276 46.2257 21.9276 46.2429 21.9276C46.2602 21.9276 46.2775 21.9276 46.2948 21.9276C46.3121 21.9276 46.3294 21.9276 46.3467 21.9276C46.364 21.9276 46.3812 21.9276 46.3985 21.9276C46.4158 21.9276 46.4331 21.9276 46.4504 21.9276C46.4677 21.9276 46.485 21.9276 46.5022 21.9276C46.5195 21.9276 46.5368 21.9276 46.5541 21.9276C46.5714 21.9276 46.5887 21.9276 46.606 21.9276C46.6232 21.9276 46.6405 21.9276 46.6578 21.9276C46.6751 21.9276 46.6924 21.9276 46.7097 21.9276C46.727 21.9276 46.7443 21.9276 46.7615 21.9276C46.7788 21.9276 46.7961 21.9276 46.8134 21.9276C46.8307 21.9276 46.848 21.9276 46.8653 21.9276C46.8825 21.9276 46.8998 21.9276 46.9171 21.9276C46.9344 21.9276 46.9517 21.9276 46.969 21.9276C46.9863 21.9276 47.0035 21.9276 47.0208 21.9276C47.0381 21.9276 47.0554 21.9276 47.0727 21.9276C47.09 21.9276 47.1073 21.9276 47.1246 21.9276C47.1418 21.9276 47.1591 21.9276 47.1764 21.9276C47.1937 21.9276 47.211 21.9276 47.2283 21.9276C47.2456 21.9276 47.2628 21.9276 47.2801 21.9276C47.2974 21.9276 47.3147 21.9276 47.332 21.9276C47.3493 21.9276 47.3666 21.9276 47.3839 21.9276C47.4011 21.9276 47.4184 21.9276 47.4357 21.9276C47.453 21.9276 47.4703 21.9276 47.4876 21.9276C47.5049 21.9276 47.5221 21.9276 47.5394 21.9276C47.5567 21.9276 47.574 21.9276 47.5913 21.9276C47.6086 21.9276 47.6259 21.9276 47.6431 21.9276C47.6604 21.9276 47.6777 21.9276 47.695 21.9276C47.7123 21.9276 47.7296 21.9276 47.7469 21.9276C47.7642 21.9276 47.7814 21.9276 47.7987 21.9276C47.816 21.9276 47.8333 21.9276 47.8506 21.9276C47.8679 21.9276 47.8852 21.9276 47.9024 21.9276C47.9197 21.9276 47.937 21.9276 47.9543 21.9276C47.9716 21.9276 47.9889 21.9276 48.0062 21.9276C48.0234 21.9276 48.0407 21.9276 48.058 21.9276C48.0753 21.9276 48.0926 21.9276 48.1099 21.9276C48.1272 21.9276 48.1445 21.9276 48.1617 21.9276C48.179 21.9276 48.1963 21.9276 48.2136 21.9276C48.2309 21.9276 48.2482 21.9276 48.2655 21.9276C48.2827 21.9276 48.3 21.9276 48.3173 21.9276C48.3346 21.9276 48.3519 21.9276 48.3692 21.9276C48.3865 21.9276 48.4037 21.9276 48.421 21.9276C48.4383 21.9276 48.4556 21.9276 48.4729 21.9276C48.4902 21.9276 48.5075 21.9276 48.5248 21.9276C48.542 21.9276 48.5593 21.9276 48.5766 21.9276C48.5939 21.9276 48.6112 21.9276 48.6285 21.9276C48.6458 21.9276 48.663 21.9276 48.6803 21.9276C48.6976 21.9276 48.7149 21.9276 48.7322 21.9276C48.7495 21.9276 48.7668 21.9276 48.784 21.9276C48.8013 21.9276 48.8186 21.9276 48.8359 21.9276C48.8532 21.9276 48.8705 21.9276 48.8878 21.9276C48.9051 21.9276 48.9223 21.9276 48.9396 21.9276C48.9569 21.9276 48.9742 21.9276 48.9915 21.9276C49.0088 21.9276 49.0261 21.9276 49.0433 21.9276C49.0606 21.9276 49.0779 21.9276 49.0952 21.9276C49.1125 21.9276 49.1298 21.9276 49.1471 21.9276C49.1644 21.9276 49.1816 21.9276 49.1989 21.9276C49.2162 21.9276 49.2335 21.9276 49.2508 21.9276C49.2681 21.9276 49.2854 21.9276 49.3026 21.9276C49.3199 21.9276 49.3372 21.9276 49.3545 21.9276C49.3718 21.9276 49.3891 21.9276 49.4064 21.9276C49.4236 21.9276 49.4409 21.9276 49.4582 21.9276C49.4755 21.9276 49.4928 21.9276 49.5101 21.9276C49.5274 21.9276 49.5447 21.9276 49.5619 21.9276C49.5792 21.9276 49.5965 21.9276 49.6138 21.9276C49.6311 21.9276 49.6484 21.9276 49.6657 21.9276C49.6829 21.9276 49.7002 21.9276 49.7175 21.9276C49.7348 21.9276 49.7521 21.9276 49.7694 21.9276C49.7867 21.9276 49.8039 21.9276 49.8212 21.9276C49.8385 21.9276 49.8558 21.9276 49.8731 21.9276C49.8904 21.9276 49.9077 21.9276 49.925 21.9276C49.9422 21.9276 49.9595 21.9276 49.9768 21.9276C49.9941 21.9276 50.0114 21.9276 50.0287 21.9276C50.046 21.9276 50.0632 21.9276 50.0805 21.9276C50.0978 21.9276 50.1151 21.9276 50.1324 21.9276C50.1497 21.9276 50.167 21.9276 50.1842 21.9276C50.2015 21.9276 50.2188 21.9276 50.2361 21.9276C50.2534 21.9276 50.2707 21.9276 50.288 21.9276C50.3053 21.9276 50.3225 21.9276 50.3398 21.9276C50.3571 21.9276 50.3744 21.9276 50.3917 21.9276C50.409 21.9276 50.4263 21.9276 50.4435 21.9276C50.4608 21.9276 50.4781 21.9276 50.4954 21.9276C50.5127 21.9276 50.53 21.9276 50.5473 21.9276C50.5646 21.9276 50.5818 21.9276 50.5991 21.9276C50.6164 21.9276 50.6337 21.9276 50.651 21.9276C50.6683 21.9276 50.6856 21.9276 50.7028 21.9276C50.7201 21.9276 50.7374 21.9276 50.7547 21.9276C50.772 21.9276 50.7893 21.9276 50.8066 21.9276C50.8238 21.9276 50.8411 21.9276 50.8584 21.9276C50.8757 21.9276 50.893 21.9276 50.9103 21.9276C50.9276 21.9276 50.9449 21.9276 50.9621 21.9276C50.9794 21.9276 50.9967 21.9276 51.014 21.9276C51.0313 21.9276 51.0486 21.9276 51.0659 21.9276C51.0831 21.9276 51.1004 21.9276 51.1177 21.9276C51.135 21.9276 51.1523 21.9276 51.1696 21.9276C51.1869 21.9276 51.2041 21.9276 51.2214 21.9276C51.2387 21.9276 51.256 21.9276 51.2733 21.9276C51.2906 21.9276 51.3079 21.9276 51.3252 21.9276C51.3424 21.9276 51.3597 21.9276 51.377 21.9276C51.3943 21.9276 51.4116 21.9276 51.4289 21.9276C51.4462 21.9276 51.4634 21.9276 51.4807 21.9276C51.498 21.9276 51.5153 21.9276 51.5326 21.9276C51.5499 21.9276 51.5672 21.9276 51.5844 21.9276C51.6017 21.9276 51.619 21.9276 51.6363 21.9276C51.6536 21.9276 51.6709 21.9276 51.6882 21.9276C51.7055 21.9276 51.7227 21.9276 51.74 21.9276C51.7573 21.9276 51.7746 21.9276 51.7919 21.9276C51.8092 21.9276 51.8265 21.9276 51.8437 21.9276C51.861 21.9276 51.8783 21.9276 51.8956 21.9276C51.9129 21.9276 51.9302 21.9276 51.9475 21.9276C51.9648 21.9276 51.982 21.9276 51.9993 21.9276C52.0166 21.9276 52.0339 21.9276 52.0512 21.9276C52.0685 21.9276 52.0858 21.9276 52.103 21.9276C52.1203 21.9276 52.1376 21.9276 52.1549 21.9276C52.1722 21.9276 52.1895 21.9276 52.2068 21.9276C52.224 21.9276 52.2413 21.9276 52.2586 21.9276C52.2759 21.9276 52.2932 21.9276 52.3105 21.9276C52.3278 21.9276 52.3451 21.9276 52.3623 21.9276C52.3796 21.9276 52.3969 21.9276 52.4142 21.9276C52.4315 21.9276 52.4488 21.9276 52.4661 21.9276C52.4833 21.9276 52.5006 21.9276 52.5179 21.9276C52.5352 21.9276 52.5525 21.9276 52.5698 21.9276C52.5871 21.9276 52.6043 21.9276 52.6216 21.9276C52.6389 21.9276 52.6562 21.9276 52.6735 21.9276C52.6908 21.9276 52.7081 21.9276 52.7254 21.9276C52.7426 21.9276 52.7599 21.9276 52.7772 21.9276C52.7945 21.9276 52.8118 21.9276 52.8291 21.9276C52.8464 21.9276 52.8636 21.9276 52.8809 21.9276C52.8982 21.9276 52.9155 21.9276 52.9328 21.9276C52.9501 21.9276 52.9674 21.9276 52.9846 21.9276C53.0019 21.9276 53.0192 21.9276 53.0365 21.9276C53.0538 21.9276 53.0711 21.9276 53.0884 21.9276C53.1057 21.9276 53.1229 21.9276 53.1402 21.9276C53.1575 21.9276 53.1748 21.9276 53.1921 21.9276C53.2094 21.9276 53.2267 21.9276 53.2439 21.9276C53.2612 21.9276 53.2785 21.9276 53.2958 21.9276C53.3131 21.9276 53.3304 21.9276 53.3477 21.9276C53.365 21.9276 53.3822 21.9276 53.3995 21.9276C53.4168 21.9276 53.4341 21.9276 53.4514 21.9276C53.4687 21.9276 53.486 21.9276 53.5032 21.9276C53.5205 21.9276 53.5378 21.9276 53.5551 21.9276C53.5724 21.9276 53.5897 21.9276 53.607 21.9276C53.6242 21.9276 53.6415 21.9276 53.6588 21.9276C53.6761 21.9276 53.6934 21.9276 53.7107 21.9276C53.728 21.9276 53.7453 21.9276 53.7625 21.9276C53.7798 21.9276 53.7971 21.9276 53.8144 21.9276C53.8317 21.9276 53.849 21.9276 53.8663 21.9276C53.8835 21.9276 53.9008 21.9276 53.9181 21.9276C53.9354 21.9276 53.9527 21.9276 53.97 21.9276C53.9873 21.9276 54.0045 21.9276 54.0218 21.9276C54.0391 21.9276 54.0564 21.9276 54.0737 21.9276C54.091 21.9276 54.1083 21.9276 54.1256 21.9276C54.1428 21.9276 54.1601 21.9276 54.1774 21.9276C54.1947 21.9276 54.212 21.9276 54.2293 21.9276C54.2466 21.9276 54.2638 21.9276 54.2811 21.9276C54.2984 21.9276 54.3157 21.9276 54.333 21.9276C54.3503 21.9276 54.3676 21.9276 54.3848 21.9276C54.4021 21.9276 54.4194 21.9276 54.4367 21.9276C54.454 21.9276 54.4713 21.9276 54.4886 21.9276C54.5059 21.9276 54.5231 21.9276 54.5404 21.9276C54.5577 21.9276 54.575 21.9276 54.5923 21.9276C54.6096 21.9276 54.6269 21.9276 54.6441 21.9276C54.6614 21.9276 54.6787 21.9276 54.696 21.9276C54.7133 21.9276 54.7306 21.9276 54.7479 21.9276C54.7652 21.9276 54.7824 21.9276 54.7997 21.9276C54.817 21.9276 54.8343 21.9276 54.8516 21.9276C54.8689 21.9276 54.8862 21.9276 54.9034 21.9276C54.9207 21.9276 54.938 21.9276 54.9553 21.9276C54.9726 21.9276 54.9899 21.9276 55.0072 21.9276C55.0244 21.9276 55.0417 21.9276 55.059 21.9276C55.0763 21.9276 55.0936 21.9276 55.1109 21.9276C55.1282 21.9276 55.1455 21.9276 55.1627 21.9276C55.18 21.9276 55.1973 21.9276 55.2146 21.9276C55.2319 21.9276 55.2492 21.9276 55.2665 21.9276C55.2837 21.9276 55.301 21.9276 55.3183 21.9276C55.3356 21.9276 55.3529 21.9276 55.3702 21.9276C55.3875 21.9276 55.4047 21.9276 55.422 21.9276C55.4393 21.9276 55.4566 21.9276 55.4739 21.9276C55.4912 21.9276 55.5085 21.9276 55.5258 21.9276C55.543 21.9276 55.5603 21.9276 55.5776 21.9276C55.5949 21.9276 55.6122 21.9276 55.6295 21.9276C55.6468 21.9276 55.664 21.9276 55.6813 21.9276C55.6986 21.9276 55.7159 21.9276 55.7332 21.9276C55.7505 21.9276 55.7678 21.9276 55.785 21.9276C55.8023 21.9276 55.8196 21.9276 55.8369 21.9276C55.8542 21.9276 55.8715 21.9276 55.8888 21.9276C55.9061 21.9276 55.9233 21.9276 55.9406 21.9276C55.9579 21.9276 55.9752 21.9276 55.9925 21.9276C56.0098 21.9276 56.0271 21.9276 56.0443 21.9276C56.0616 21.9276 56.0789 21.9276 56.0962 21.9276C56.1135 21.9276 56.1308 21.9276 56.1481 21.9276C56.1654 21.9276 56.1826 21.9276 56.1999 21.9276C56.2172 21.9276 56.2345 21.9276 56.2518 21.9276C56.2691 21.9276 56.2864 21.9276 56.3036 21.9276C56.3209 21.9276 56.3382 21.9276 56.3555 21.9276C56.3728 21.9276 56.3901 21.9276 56.4074 21.9276C56.4246 21.9276 56.4419 21.9276 56.4592 21.9276C56.4765 21.9276 56.4938 21.9276 56.5111 21.9276C56.5284 21.9276 56.5457 21.9276 56.5629 21.9276C56.5802 21.9276 56.5975 21.9276 56.6148 21.9276C56.6321 21.9276 56.6494 21.9276 56.6667 21.9276C56.6839 21.9276 56.7012 21.9276 56.7185 21.9276C56.7358 21.9276 56.7531 21.9276 56.7704 21.9276C56.7877 21.9276 56.8049 21.9276 56.8222 21.9276C56.8395 21.9276 56.8568 21.9276 56.8741 21.9276C56.8914 21.9276 56.9087 21.9276 56.926 21.9276C56.9432 21.9276 56.9605 21.9276 56.9778 21.9276C56.9951 21.9276 57.0124 21.9276 57.0297 21.9276C57.047 21.9276 57.0642 21.9276 57.0815 21.9276C57.0988 21.9276 57.1161 21.9276 57.1334 21.9276C57.1507 21.9276 57.168 21.9276 57.1852 21.9276C57.2025 21.9276 57.2198 21.9276 57.2371 21.9276C57.2544 21.9276 57.2717 21.9276 57.289 21.9276C57.3063 21.9276 57.3235 21.9276 57.3408 21.9276C57.3581 21.9276 57.3754 21.9276 57.3927 21.9276C57.41 21.9276 57.4273 21.9276 57.4445 21.9276C57.4618 21.9276 57.4791 21.9276 57.4964 21.9276C57.5137 21.9276 57.531 21.9276 57.5483 21.9276C57.5656 21.9276 57.5828 21.9276 57.6001 21.9276C57.6174 21.9276 57.6347 21.9276 57.652 21.9276C57.6693 21.9276 57.6866 21.9276 57.7038 21.9276C57.7211 21.9276 57.7384 21.9276 57.7557 21.9276C57.773 21.9276 57.7903 21.9276 57.8076 21.9276C57.8248 21.9276 57.8421 21.9276 57.8594 21.9276C57.8767 21.9276 57.894 21.9276 57.9113 21.9276C57.9286 21.9276 57.9459 21.9276 57.9631 21.9276C57.9804 21.9276 57.9977 21.9276 58.015 21.9276C58.0323 21.9276 58.0496 21.9276 58.0669 21.9276C58.0841 21.9276 58.1014 21.9276 58.1187 21.9276C58.136 21.9276 58.1533 21.9276 58.1706 21.9276C58.1879 21.9276 58.2051 21.9276 58.2224 21.9276C58.2397 21.9276 58.257 21.9276 58.2743 21.9276C58.2916 21.9276 58.3089 21.9276 58.3262 21.9276C58.3434 21.9276 58.3607 21.9276 58.378 21.9276C58.3953 21.9276 58.4126 21.9276 58.4299 21.9276C58.4472 21.9276 58.4644 21.9276 58.4817 21.9276C58.499 21.9276 58.5163 21.9276 58.5336 21.9276C58.5509 21.9276 58.5682 21.9276 58.5854 21.9276C58.6027 21.9276 58.62 21.9276 58.6373 21.9276C58.6546 21.9276 58.6719 21.9276 58.6892 21.9276C58.7065 21.9276 58.7237 21.9276 58.741 21.9276C58.7583 21.9276 58.7756 21.9276 58.7929 21.9276C58.8102 21.9276 58.8275 21.9276 58.8447 21.9276C58.862 21.9276 58.8793 21.9276 58.8966 21.9276C58.9139 21.9276 58.9312 21.9276 58.9485 21.9276C58.9658 21.9276 58.983 21.9276 59.0003 21.9276C59.0176 21.9276 59.0349 21.9276 59.0522 21.9276C59.0695 21.9276 59.0868 21.9276 59.104 21.9276C59.1213 21.9276 59.1386 21.9276 59.1559 21.9276C59.1732 21.9276 59.1905 21.9276 59.2078 21.9276C59.225 21.9276 59.2423 21.9276 59.2596 21.9276C59.2769 21.9276 59.2942 21.9276 59.3115 21.9276C59.3288 21.9276 59.3461 21.9276 59.3633 21.9276C59.3806 21.9276 59.3979 21.9276 59.4152 21.9276C59.4325 21.9276 59.4498 21.9276 59.4671 21.9276C59.4843 21.9276 59.5016 21.9276 59.5189 21.9276C59.5362 21.9276 59.5535 21.9276 59.5708 21.9276C59.5881 21.9276 59.6053 21.9276 59.6226 21.9276C59.6399 21.9276 59.6572 21.9276 59.6745 21.9276C59.6918 21.9276 59.7091 21.9276 59.7264 21.9276C59.7436 21.9276 59.7609 21.9276 59.7782 21.9276C59.7955 21.9276 59.8128 21.9276 59.8301 21.9276C59.8474 21.9276 59.8646 21.9276 59.8819 21.9276C59.8992 21.9276 59.9165 21.9276 59.9338 21.9276C59.9511 21.9276 59.9684 21.9276 59.9856 21.9276C60.0029 21.9276 60.0202 21.9276 60.0375 21.9276C60.0548 21.9276 60.0721 21.9276 60.0894 21.9276C60.1067 21.9276 60.1239 21.9276 60.1412 21.9276C60.1585 21.9276 60.1758 21.9276 60.1931 21.9276C60.2104 21.9276 60.2277 21.9276 60.2449 21.9276C60.2622 21.9276 60.2795 21.9276 60.2968 21.9276C60.3141 21.9276 60.3314 21.9276 60.3487 21.9276C60.366 21.9276 60.3832 21.9276 60.4005 21.9276C60.4178 21.9276 60.4351 21.9276 60.4524 21.9276C60.4697 21.9276 60.487 21.9276 60.5042 21.9276C60.5215 21.9276 60.5388 21.9276 60.5561 21.9276C60.5734 21.9276 60.5907 21.9276 60.608 21.9276C60.6252 21.9276 60.6425 21.9276 60.6598 21.9276C60.6771 21.9276 60.6944 21.9276 60.7117 21.9276C60.729 21.9276 60.7463 21.9276 60.7635 21.9276C60.7808 21.9276 60.7981 21.9276 60.8154 21.9276C60.8327 21.9276 60.85 21.9276 60.8673 21.9276C60.8845 21.9276 60.9018 21.9276 60.9191 21.9276C60.9364 21.9276 60.9537 21.9276 60.971 21.9276C60.9883 21.9276 61.0055 21.9276 61.0228 21.9276C61.0401 21.9276 61.0574 21.9276 61.0747 21.9276C61.092 21.9276 61.1093 21.9276 61.1266 21.9276C61.1438 21.9276 61.1611 21.9276 61.1784 21.9276C61.1957 21.9276 61.213 21.9276 61.2303 21.9276C61.2476 21.9276 61.2648 21.9276 61.2821 21.9276C61.2994 21.9276 61.3167 21.9276 61.334 21.9276C61.3513 21.9276 61.3686 21.9276 61.3858 21.9276C61.4031 21.9276 61.4204 21.9276 61.4377 21.9276C61.455 21.9276 61.4723 21.9276 61.4896 21.9276C61.5069 21.9276 61.5241 21.9276 61.5414 21.9276C61.5587 21.9276 61.576 21.9276 61.5933 21.9276C61.6106 21.9276 61.6279 21.9276 61.6451 21.9276C61.6624 21.9276 61.6797 21.9276 61.697 21.9276C61.7143 21.9276 61.7316 21.9276 61.7489 21.9276C61.7662 21.9276 61.7834 21.9276 61.8007 21.9276C61.818 21.9276 61.8353 21.9276 61.8526 21.9276C61.8699 21.9276 61.8872 21.9276 61.9044 21.9276C61.9217 21.9276 61.939 21.9276 61.9563 21.9276C61.9736 21.9276 61.9909 21.9276 62.0082 21.9276C62.0254 21.9276 62.0427 21.9276 62.06 21.9276C62.0773 21.9276 62.0946 21.9276 62.1119 21.9276C62.1292 21.9276 62.1465 21.9276 62.1637 21.9276C62.181 21.9276 62.1983 21.9276 62.2156 21.9276C62.2329 21.9276 62.2502 21.9276 62.2675 21.9276C62.2847 21.9276 62.302 21.9276 62.3193 21.9276C62.3366 21.9276 62.3539 21.9276 62.3712 21.9276C62.3885 21.9276 62.4057 21.9276 62.423 21.9276C62.4403 21.9276 62.4576 21.9276 62.4749 21.9276C62.4922 21.9276 62.5095 21.9276 62.5268 21.9276C62.544 21.9276 62.5613 21.9276 62.5786 21.9276C62.5959 21.9276 62.6132 21.9276 62.6305 21.9276C62.6478 21.9276 62.665 21.9276 62.6823 21.9276C62.6996 21.9276 62.7169 21.9276 62.7342 21.9276C62.7515 21.9276 62.7688 21.9276 62.786 21.9276C62.8033 21.9276 62.8206 21.9276 62.8379 21.9276C62.8552 21.9276 62.8725 21.9276 62.8898 21.9276C62.9071 21.9276 62.9243 21.9276 62.9416 21.9276C62.9589 21.9276 62.9762 21.9276 62.9935 21.9276C63.0108 21.9276 63.0281 21.9276 63.0453 21.9276C63.0626 21.9276 63.0799 21.9276 63.0972 21.9276C63.1145 21.9276 63.1318 21.9276 63.1491 21.9276C63.1664 21.9276 63.1836 21.9276 63.2009 21.9276C63.2182 21.9276 63.2355 21.9276 63.2528 21.9276C63.2701 21.9276 63.2874 21.9276 63.3046 21.9276C63.3219 21.9276 63.3392 21.9276 63.3565 21.9276C63.3738 21.9276 63.3911 21.9276 63.4084 21.9276C63.4256 21.9276 63.4429 21.9276 63.4602 21.9276C63.4775 21.9276 63.4948 21.9276 63.5121 21.9276C63.5294 21.9276 63.5466 21.9276 63.5639 21.9276C63.5812 21.9276 63.5985 21.9276 63.6158 21.9276C63.6331 21.9276 63.6504 21.9276 63.6677 21.9276C63.6849 21.9276 63.7022 21.9276 63.7195 21.9276C63.7368 21.9276 63.7541 21.9276 63.7714 21.9276C63.7887 21.9276 63.8059 21.9276 63.8232 21.9276C63.8405 21.9276 63.8578 21.9276 63.8751 21.9276C63.8924 21.9276 63.9097 21.9276 63.927 21.9276C63.9442 21.9276 63.9615 21.9276 63.9788 21.9276C63.9961 21.9276 64.0134 21.9276 64.0307 21.9276C64.048 21.9276 64.0652 21.9276 64.0825 21.9276C64.0998 21.9276 64.1171 21.9276 64.1344 21.9276C64.1517 21.9276 64.169 21.9276 64.1862 21.9276C64.2035 21.9276 64.2208 21.9276 64.2381 21.9276C64.2554 21.9276 64.2727 21.9276 64.29 21.9276C64.3073 21.9276 64.3245 21.9276 64.3418 21.9276C64.3591 21.9276 64.3764 21.9276 64.3937 21.9276C64.411 21.9276 64.4283 21.9276 64.4455 21.9276C64.4628 21.9276 64.4801 21.9276 64.4974 21.9276C64.5147 21.9276 64.532 21.9276 64.5493 21.9276C64.5666 21.9276 64.5838 21.9276 64.6011 21.9276C64.6184 21.9276 64.6357 21.9276 64.653 21.9276C64.6703 21.9276 64.6876 21.9276 64.7048 21.9276C64.7221 21.9276 64.7394 21.9276 64.7567 21.9276C64.774 21.9276 64.7913 21.9276 64.8086 21.9276C64.8258 21.9276 64.8431 21.9276 64.8604 21.9276C64.8777 21.9276 64.895 21.9276 64.9123 21.9276C64.9296 21.9276 64.9469 21.9276 64.9641 21.9276C64.9814 21.9276 64.9987 21.9276 65.016 21.9276C65.0333 21.9276 65.0506 21.9276 65.0679 21.9276C65.0851 21.9276 65.1024 21.9276 65.1197 21.9276C65.137 21.9276 65.1543 21.9276 65.1716 21.9276C65.1889 21.9276 65.2061 21.9276 65.2234 21.9276C65.2407 21.9276 65.258 21.9276 65.2753 21.9276C65.2926 21.9276 65.3099 21.9276 65.3272 21.9276C65.3444 21.9276 65.3617 21.9276 65.379 21.9276C65.3963 21.9276 65.4136 21.9276 65.4309 21.9276C65.4482 21.9276 65.4654 21.9276 65.4827 21.9276C65.5 21.9276 65.5173 21.9276 65.5346 21.9276C65.5519 21.9276 65.5692 21.9276 65.5864 21.9276C65.6037 21.9276 65.621 21.9276 65.6383 21.9276C65.6556 21.9276 65.6729 21.9276 65.6902 21.9276C65.7075 21.9276 65.7247 21.9276 65.742 21.9276C65.7593 21.9276 65.7766 21.9276 65.7939 21.9276C65.8112 21.9276 65.8285 21.9276 65.8457 21.9276C65.863 21.9276 65.8803 21.9276 65.8976 21.9276C65.9149 21.9276 65.9322 21.9276 65.9495 21.9276C65.9668 21.9276 65.984 21.9276 66.0013 21.9276C66.0186 21.9276 66.0359 21.9276 66.0532 21.9276C66.0705 21.9276 66.0878 21.9276 66.105 21.9276C66.1223 21.9276 66.1396 21.9276 66.1569 21.9276C66.1742 21.9276 66.1915 21.9276 66.2088 21.9276C66.226 21.9276 66.2433 21.9276 66.2606 21.9276C66.2779 21.9276 66.2952 21.9276 66.3125 21.9276C66.3298 21.9276 66.3471 21.9276 66.3643 21.9276C66.3816 21.9276 66.3989 21.9276 66.4162 21.9276C66.4335 21.9276 66.4508 21.9276 66.4681 21.9276C66.4853 21.9276 66.5026 21.9276 66.5199 21.9276C66.5372 21.9276 66.5545 21.9276 66.5718 21.9276C66.5891 21.9276 66.6063 21.9276 66.6236 21.9276C66.6409 21.9276 66.6582 21.9276 66.6755 21.9276C66.6928 21.9276 66.7101 21.9276 66.7274 21.9276C66.7446 21.9276 66.7619 21.9276 66.7792 21.9276C66.7965 21.9276 66.8138 21.9276 66.8311 21.9276C66.8484 21.9276 66.8656 21.9276 66.8829 21.9276C66.9002 21.9276 66.9175 21.9276 66.9348 21.9276C66.9521 21.9276 66.9694 21.9276 66.9866 21.9276C67.0039 21.9276 67.0212 21.9276 67.0385 21.9276C67.0558 21.9276 67.0731 21.9276 67.0904 21.9276C67.1077 21.9276 67.1249 21.9276 67.1422 21.9276C67.1595 21.9276 67.1768 21.9276 67.1941 21.9276C67.2114 21.9276 67.2287 21.9276 67.2459 21.9276C67.2632 21.9276 67.2805 21.9276 67.2978 21.9276C67.3151 21.9276 67.3324 21.9276 67.3497 21.9276C67.367 21.9276 67.3842 21.9276 67.4015 21.9276C67.4188 21.9276 67.4361 21.9276 67.4534 21.9276C67.4707 21.9276 67.488 21.9276 67.5052 21.9276C67.5225 21.9276 67.5398 21.9276 67.5571 21.9276C67.5744 21.9276 67.5917 21.9276 67.609 21.9276C67.6262 21.9276 67.6435 21.9276 67.6608 21.9276C67.6781 21.9276 67.6954 21.9276 67.7127 21.9276C67.73 21.9276 67.7473 21.9276 67.7645 21.9276C67.7818 21.9276 67.7991 21.9276 67.8164 21.9276C67.8337 21.9276 67.851 21.9276 67.8683 21.9276C67.8855 21.9276 67.9028 21.9276 67.9201 21.9276C67.9374 21.9276 67.9547 21.9276 67.972 21.9276C67.9893 21.9276 68.0065 21.9276 68.0238 21.9276C68.0411 21.9276 68.0584 21.9276 68.0757 21.9276C68.093 21.9276 68.1103 21.9276 68.1276 21.9276C68.1448 21.9276 68.1621 21.9276 68.1794 21.9276C68.1967 21.9276 68.214 21.9276 68.2313 21.9276C68.2486 21.9276 68.2658 21.9276 68.2831 21.9276C68.3004 21.9276 68.3177 21.9276 68.335 21.9276C68.3523 21.9276 68.3696 21.9276 68.3868 21.9276C68.4041 21.9276 68.4214 21.9276 68.4387 21.9276C68.456 21.9276 68.4733 21.9276 68.4906 21.9276C68.5079 21.9276 68.5251 21.9276 68.5424 21.9276C68.5597 21.9276 68.577 21.9276 68.5943 21.9276C68.6116 21.9276 68.6289 21.9276 68.6461 21.9276C68.6634 21.9276 68.6807 21.9276 68.698 21.9276C68.7153 21.9276 68.7326 21.9276 68.7499 21.9276C68.7672 21.9276 68.7844 21.9276 68.8017 21.9276C68.819 21.9276 68.8363 21.9276 68.8536 21.9276C68.8709 21.9276 68.8882 21.9276 68.9054 21.9276C68.9227 21.9276 68.94 21.9276 68.9573 21.9276C68.9746 21.9276 68.9919 21.9276 69.0092 21.9276C69.0264 21.9276 69.0437 21.9276 69.061 21.9276C69.0783 21.9276 69.0956 21.9276 69.1129 21.9276C69.1302 21.9276 69.1475 21.9276 69.1647 21.9276C69.182 21.9276 69.1993 21.9276 69.2166 21.9276C69.2339 21.9276 69.2512 21.9276 69.2685 21.9276C69.2857 21.9276 69.303 21.9276 69.3203 21.9276C69.3376 21.9276 69.3549 21.9276 69.3722 21.9276C69.3895 21.9276 69.4067 21.9276 69.424 21.9276C69.4413 21.9276 69.4586 21.9276 69.4759 21.9276C69.4932 21.9276 69.5105 21.9276 69.5278 21.9276C69.545 21.9276 69.5623 21.9276 69.5796 21.9276C69.5969 21.9276 69.6142 21.9276 69.6315 21.9276C69.6488 21.9276 69.666 21.9276 69.6833 21.9276C69.7006 21.9276 69.7179 21.9276 69.7352 21.9276C69.7525 21.9276 69.7698 21.9276 69.787 21.9276C69.8043 21.9276 69.8216 21.9276 69.8389 21.9276C69.8562 21.9276 69.8735 21.9276 69.8908 21.9276C69.9081 21.9276 69.9253 21.9276 69.9426 21.9276C69.9599 21.9276 69.9772 21.9276 69.9945 21.9276C70.0118 21.9276 70.0291 21.9276 70.0463 21.9276C70.0636 21.9276 70.0809 21.9276 70.0982 21.9276C70.1155 21.9276 70.1328 21.9276 70.1501 21.9276V20.9276C70.1328 20.9276 70.1155 20.9276 70.0982 20.9276C70.0809 20.9276 70.0636 20.9276 70.0463 20.9276C70.0291 20.9276 70.0118 20.9276 69.9945 20.9276C69.9772 20.9276 69.9599 20.9276 69.9426 20.9276C69.9253 20.9276 69.9081 20.9276 69.8908 20.9276C69.8735 20.9276 69.8562 20.9276 69.8389 20.9276C69.8216 20.9276 69.8043 20.9276 69.787 20.9276C69.7698 20.9276 69.7525 20.9276 69.7352 20.9276C69.7179 20.9276 69.7006 20.9276 69.6833 20.9276C69.666 20.9276 69.6488 20.9276 69.6315 20.9276C69.6142 20.9276 69.5969 20.9276 69.5796 20.9276C69.5623 20.9276 69.545 20.9276 69.5278 20.9276C69.5105 20.9276 69.4932 20.9276 69.4759 20.9276C69.4586 20.9276 69.4413 20.9276 69.424 20.9276C69.4067 20.9276 69.3895 20.9276 69.3722 20.9276C69.3549 20.9276 69.3376 20.9276 69.3203 20.9276C69.303 20.9276 69.2857 20.9276 69.2685 20.9276C69.2512 20.9276 69.2339 20.9276 69.2166 20.9276C69.1993 20.9276 69.182 20.9276 69.1647 20.9276C69.1475 20.9276 69.1302 20.9276 69.1129 20.9276C69.0956 20.9276 69.0783 20.9276 69.061 20.9276C69.0437 20.9276 69.0264 20.9276 69.0092 20.9276C68.9919 20.9276 68.9746 20.9276 68.9573 20.9276C68.94 20.9276 68.9227 20.9276 68.9054 20.9276C68.8882 20.9276 68.8709 20.9276 68.8536 20.9276C68.8363 20.9276 68.819 20.9276 68.8017 20.9276C68.7844 20.9276 68.7672 20.9276 68.7499 20.9276C68.7326 20.9276 68.7153 20.9276 68.698 20.9276C68.6807 20.9276 68.6634 20.9276 68.6461 20.9276C68.6289 20.9276 68.6116 20.9276 68.5943 20.9276C68.577 20.9276 68.5597 20.9276 68.5424 20.9276C68.5251 20.9276 68.5079 20.9276 68.4906 20.9276C68.4733 20.9276 68.456 20.9276 68.4387 20.9276C68.4214 20.9276 68.4041 20.9276 68.3868 20.9276C68.3696 20.9276 68.3523 20.9276 68.335 20.9276C68.3177 20.9276 68.3004 20.9276 68.2831 20.9276C68.2658 20.9276 68.2486 20.9276 68.2313 20.9276C68.214 20.9276 68.1967 20.9276 68.1794 20.9276C68.1621 20.9276 68.1448 20.9276 68.1276 20.9276C68.1103 20.9276 68.093 20.9276 68.0757 20.9276C68.0584 20.9276 68.0411 20.9276 68.0238 20.9276C68.0065 20.9276 67.9893 20.9276 67.972 20.9276C67.9547 20.9276 67.9374 20.9276 67.9201 20.9276C67.9028 20.9276 67.8855 20.9276 67.8683 20.9276C67.851 20.9276 67.8337 20.9276 67.8164 20.9276C67.7991 20.9276 67.7818 20.9276 67.7645 20.9276C67.7473 20.9276 67.73 20.9276 67.7127 20.9276C67.6954 20.9276 67.6781 20.9276 67.6608 20.9276C67.6435 20.9276 67.6262 20.9276 67.609 20.9276C67.5917 20.9276 67.5744 20.9276 67.5571 20.9276C67.5398 20.9276 67.5225 20.9276 67.5052 20.9276C67.488 20.9276 67.4707 20.9276 67.4534 20.9276C67.4361 20.9276 67.4188 20.9276 67.4015 20.9276C67.3842 20.9276 67.367 20.9276 67.3497 20.9276C67.3324 20.9276 67.3151 20.9276 67.2978 20.9276C67.2805 20.9276 67.2632 20.9276 67.2459 20.9276C67.2287 20.9276 67.2114 20.9276 67.1941 20.9276C67.1768 20.9276 67.1595 20.9276 67.1422 20.9276C67.1249 20.9276 67.1077 20.9276 67.0904 20.9276C67.0731 20.9276 67.0558 20.9276 67.0385 20.9276C67.0212 20.9276 67.0039 20.9276 66.9866 20.9276C66.9694 20.9276 66.9521 20.9276 66.9348 20.9276C66.9175 20.9276 66.9002 20.9276 66.8829 20.9276C66.8656 20.9276 66.8484 20.9276 66.8311 20.9276C66.8138 20.9276 66.7965 20.9276 66.7792 20.9276C66.7619 20.9276 66.7446 20.9276 66.7274 20.9276C66.7101 20.9276 66.6928 20.9276 66.6755 20.9276C66.6582 20.9276 66.6409 20.9276 66.6236 20.9276C66.6063 20.9276 66.5891 20.9276 66.5718 20.9276C66.5545 20.9276 66.5372 20.9276 66.5199 20.9276C66.5026 20.9276 66.4853 20.9276 66.4681 20.9276C66.4508 20.9276 66.4335 20.9276 66.4162 20.9276C66.3989 20.9276 66.3816 20.9276 66.3643 20.9276C66.3471 20.9276 66.3298 20.9276 66.3125 20.9276C66.2952 20.9276 66.2779 20.9276 66.2606 20.9276C66.2433 20.9276 66.226 20.9276 66.2088 20.9276C66.1915 20.9276 66.1742 20.9276 66.1569 20.9276C66.1396 20.9276 66.1223 20.9276 66.105 20.9276C66.0878 20.9276 66.0705 20.9276 66.0532 20.9276C66.0359 20.9276 66.0186 20.9276 66.0013 20.9276C65.984 20.9276 65.9668 20.9276 65.9495 20.9276C65.9322 20.9276 65.9149 20.9276 65.8976 20.9276C65.8803 20.9276 65.863 20.9276 65.8457 20.9276C65.8285 20.9276 65.8112 20.9276 65.7939 20.9276C65.7766 20.9276 65.7593 20.9276 65.742 20.9276C65.7247 20.9276 65.7075 20.9276 65.6902 20.9276C65.6729 20.9276 65.6556 20.9276 65.6383 20.9276C65.621 20.9276 65.6037 20.9276 65.5864 20.9276C65.5692 20.9276 65.5519 20.9276 65.5346 20.9276C65.5173 20.9276 65.5 20.9276 65.4827 20.9276C65.4654 20.9276 65.4482 20.9276 65.4309 20.9276C65.4136 20.9276 65.3963 20.9276 65.379 20.9276C65.3617 20.9276 65.3444 20.9276 65.3272 20.9276C65.3099 20.9276 65.2926 20.9276 65.2753 20.9276C65.258 20.9276 65.2407 20.9276 65.2234 20.9276C65.2061 20.9276 65.1889 20.9276 65.1716 20.9276C65.1543 20.9276 65.137 20.9276 65.1197 20.9276C65.1024 20.9276 65.0851 20.9276 65.0679 20.9276C65.0506 20.9276 65.0333 20.9276 65.016 20.9276C64.9987 20.9276 64.9814 20.9276 64.9641 20.9276C64.9469 20.9276 64.9296 20.9276 64.9123 20.9276C64.895 20.9276 64.8777 20.9276 64.8604 20.9276C64.8431 20.9276 64.8258 20.9276 64.8086 20.9276C64.7913 20.9276 64.774 20.9276 64.7567 20.9276C64.7394 20.9276 64.7221 20.9276 64.7048 20.9276C64.6876 20.9276 64.6703 20.9276 64.653 20.9276C64.6357 20.9276 64.6184 20.9276 64.6011 20.9276C64.5838 20.9276 64.5666 20.9276 64.5493 20.9276C64.532 20.9276 64.5147 20.9276 64.4974 20.9276C64.4801 20.9276 64.4628 20.9276 64.4455 20.9276C64.4283 20.9276 64.411 20.9276 64.3937 20.9276C64.3764 20.9276 64.3591 20.9276 64.3418 20.9276C64.3245 20.9276 64.3073 20.9276 64.29 20.9276C64.2727 20.9276 64.2554 20.9276 64.2381 20.9276C64.2208 20.9276 64.2035 20.9276 64.1862 20.9276C64.169 20.9276 64.1517 20.9276 64.1344 20.9276C64.1171 20.9276 64.0998 20.9276 64.0825 20.9276C64.0652 20.9276 64.048 20.9276 64.0307 20.9276C64.0134 20.9276 63.9961 20.9276 63.9788 20.9276C63.9615 20.9276 63.9442 20.9276 63.927 20.9276C63.9097 20.9276 63.8924 20.9276 63.8751 20.9276C63.8578 20.9276 63.8405 20.9276 63.8232 20.9276C63.8059 20.9276 63.7887 20.9276 63.7714 20.9276C63.7541 20.9276 63.7368 20.9276 63.7195 20.9276C63.7022 20.9276 63.6849 20.9276 63.6677 20.9276C63.6504 20.9276 63.6331 20.9276 63.6158 20.9276C63.5985 20.9276 63.5812 20.9276 63.5639 20.9276C63.5466 20.9276 63.5294 20.9276 63.5121 20.9276C63.4948 20.9276 63.4775 20.9276 63.4602 20.9276C63.4429 20.9276 63.4256 20.9276 63.4084 20.9276C63.3911 20.9276 63.3738 20.9276 63.3565 20.9276C63.3392 20.9276 63.3219 20.9276 63.3046 20.9276C63.2874 20.9276 63.2701 20.9276 63.2528 20.9276C63.2355 20.9276 63.2182 20.9276 63.2009 20.9276C63.1836 20.9276 63.1664 20.9276 63.1491 20.9276C63.1318 20.9276 63.1145 20.9276 63.0972 20.9276C63.0799 20.9276 63.0626 20.9276 63.0453 20.9276C63.0281 20.9276 63.0108 20.9276 62.9935 20.9276C62.9762 20.9276 62.9589 20.9276 62.9416 20.9276C62.9243 20.9276 62.9071 20.9276 62.8898 20.9276C62.8725 20.9276 62.8552 20.9276 62.8379 20.9276C62.8206 20.9276 62.8033 20.9276 62.786 20.9276C62.7688 20.9276 62.7515 20.9276 62.7342 20.9276C62.7169 20.9276 62.6996 20.9276 62.6823 20.9276C62.665 20.9276 62.6478 20.9276 62.6305 20.9276C62.6132 20.9276 62.5959 20.9276 62.5786 20.9276C62.5613 20.9276 62.544 20.9276 62.5268 20.9276C62.5095 20.9276 62.4922 20.9276 62.4749 20.9276C62.4576 20.9276 62.4403 20.9276 62.423 20.9276C62.4057 20.9276 62.3885 20.9276 62.3712 20.9276C62.3539 20.9276 62.3366 20.9276 62.3193 20.9276C62.302 20.9276 62.2847 20.9276 62.2675 20.9276C62.2502 20.9276 62.2329 20.9276 62.2156 20.9276C62.1983 20.9276 62.181 20.9276 62.1637 20.9276C62.1465 20.9276 62.1292 20.9276 62.1119 20.9276C62.0946 20.9276 62.0773 20.9276 62.06 20.9276C62.0427 20.9276 62.0254 20.9276 62.0082 20.9276C61.9909 20.9276 61.9736 20.9276 61.9563 20.9276C61.939 20.9276 61.9217 20.9276 61.9044 20.9276C61.8872 20.9276 61.8699 20.9276 61.8526 20.9276C61.8353 20.9276 61.818 20.9276 61.8007 20.9276C61.7834 20.9276 61.7662 20.9276 61.7489 20.9276C61.7316 20.9276 61.7143 20.9276 61.697 20.9276C61.6797 20.9276 61.6624 20.9276 61.6451 20.9276C61.6279 20.9276 61.6106 20.9276 61.5933 20.9276C61.576 20.9276 61.5587 20.9276 61.5414 20.9276C61.5241 20.9276 61.5069 20.9276 61.4896 20.9276C61.4723 20.9276 61.455 20.9276 61.4377 20.9276C61.4204 20.9276 61.4031 20.9276 61.3858 20.9276C61.3686 20.9276 61.3513 20.9276 61.334 20.9276C61.3167 20.9276 61.2994 20.9276 61.2821 20.9276C61.2648 20.9276 61.2476 20.9276 61.2303 20.9276C61.213 20.9276 61.1957 20.9276 61.1784 20.9276C61.1611 20.9276 61.1438 20.9276 61.1266 20.9276C61.1093 20.9276 61.092 20.9276 61.0747 20.9276C61.0574 20.9276 61.0401 20.9276 61.0228 20.9276C61.0055 20.9276 60.9883 20.9276 60.971 20.9276C60.9537 20.9276 60.9364 20.9276 60.9191 20.9276C60.9018 20.9276 60.8845 20.9276 60.8673 20.9276C60.85 20.9276 60.8327 20.9276 60.8154 20.9276C60.7981 20.9276 60.7808 20.9276 60.7635 20.9276C60.7463 20.9276 60.729 20.9276 60.7117 20.9276C60.6944 20.9276 60.6771 20.9276 60.6598 20.9276C60.6425 20.9276 60.6252 20.9276 60.608 20.9276C60.5907 20.9276 60.5734 20.9276 60.5561 20.9276C60.5388 20.9276 60.5215 20.9276 60.5042 20.9276C60.487 20.9276 60.4697 20.9276 60.4524 20.9276C60.4351 20.9276 60.4178 20.9276 60.4005 20.9276C60.3832 20.9276 60.366 20.9276 60.3487 20.9276C60.3314 20.9276 60.3141 20.9276 60.2968 20.9276C60.2795 20.9276 60.2622 20.9276 60.2449 20.9276C60.2277 20.9276 60.2104 20.9276 60.1931 20.9276C60.1758 20.9276 60.1585 20.9276 60.1412 20.9276C60.1239 20.9276 60.1067 20.9276 60.0894 20.9276C60.0721 20.9276 60.0548 20.9276 60.0375 20.9276C60.0202 20.9276 60.0029 20.9276 59.9856 20.9276C59.9684 20.9276 59.9511 20.9276 59.9338 20.9276C59.9165 20.9276 59.8992 20.9276 59.8819 20.9276C59.8646 20.9276 59.8474 20.9276 59.8301 20.9276C59.8128 20.9276 59.7955 20.9276 59.7782 20.9276C59.7609 20.9276 59.7436 20.9276 59.7264 20.9276C59.7091 20.9276 59.6918 20.9276 59.6745 20.9276C59.6572 20.9276 59.6399 20.9276 59.6226 20.9276C59.6053 20.9276 59.5881 20.9276 59.5708 20.9276C59.5535 20.9276 59.5362 20.9276 59.5189 20.9276C59.5016 20.9276 59.4843 20.9276 59.4671 20.9276C59.4498 20.9276 59.4325 20.9276 59.4152 20.9276C59.3979 20.9276 59.3806 20.9276 59.3633 20.9276C59.3461 20.9276 59.3288 20.9276 59.3115 20.9276C59.2942 20.9276 59.2769 20.9276 59.2596 20.9276C59.2423 20.9276 59.225 20.9276 59.2078 20.9276C59.1905 20.9276 59.1732 20.9276 59.1559 20.9276C59.1386 20.9276 59.1213 20.9276 59.104 20.9276C59.0868 20.9276 59.0695 20.9276 59.0522 20.9276C59.0349 20.9276 59.0176 20.9276 59.0003 20.9276C58.983 20.9276 58.9658 20.9276 58.9485 20.9276C58.9312 20.9276 58.9139 20.9276 58.8966 20.9276C58.8793 20.9276 58.862 20.9276 58.8447 20.9276C58.8275 20.9276 58.8102 20.9276 58.7929 20.9276C58.7756 20.9276 58.7583 20.9276 58.741 20.9276C58.7237 20.9276 58.7065 20.9276 58.6892 20.9276C58.6719 20.9276 58.6546 20.9276 58.6373 20.9276C58.62 20.9276 58.6027 20.9276 58.5854 20.9276C58.5682 20.9276 58.5509 20.9276 58.5336 20.9276C58.5163 20.9276 58.499 20.9276 58.4817 20.9276C58.4644 20.9276 58.4472 20.9276 58.4299 20.9276C58.4126 20.9276 58.3953 20.9276 58.378 20.9276C58.3607 20.9276 58.3434 20.9276 58.3262 20.9276C58.3089 20.9276 58.2916 20.9276 58.2743 20.9276C58.257 20.9276 58.2397 20.9276 58.2224 20.9276C58.2051 20.9276 58.1879 20.9276 58.1706 20.9276C58.1533 20.9276 58.136 20.9276 58.1187 20.9276C58.1014 20.9276 58.0841 20.9276 58.0669 20.9276C58.0496 20.9276 58.0323 20.9276 58.015 20.9276C57.9977 20.9276 57.9804 20.9276 57.9631 20.9276C57.9459 20.9276 57.9286 20.9276 57.9113 20.9276C57.894 20.9276 57.8767 20.9276 57.8594 20.9276C57.8421 20.9276 57.8248 20.9276 57.8076 20.9276C57.7903 20.9276 57.773 20.9276 57.7557 20.9276C57.7384 20.9276 57.7211 20.9276 57.7038 20.9276C57.6866 20.9276 57.6693 20.9276 57.652 20.9276C57.6347 20.9276 57.6174 20.9276 57.6001 20.9276C57.5828 20.9276 57.5656 20.9276 57.5483 20.9276C57.531 20.9276 57.5137 20.9276 57.4964 20.9276C57.4791 20.9276 57.4618 20.9276 57.4445 20.9276C57.4273 20.9276 57.41 20.9276 57.3927 20.9276C57.3754 20.9276 57.3581 20.9276 57.3408 20.9276C57.3235 20.9276 57.3063 20.9276 57.289 20.9276C57.2717 20.9276 57.2544 20.9276 57.2371 20.9276C57.2198 20.9276 57.2025 20.9276 57.1852 20.9276C57.168 20.9276 57.1507 20.9276 57.1334 20.9276C57.1161 20.9276 57.0988 20.9276 57.0815 20.9276C57.0642 20.9276 57.047 20.9276 57.0297 20.9276C57.0124 20.9276 56.9951 20.9276 56.9778 20.9276C56.9605 20.9276 56.9432 20.9276 56.926 20.9276C56.9087 20.9276 56.8914 20.9276 56.8741 20.9276C56.8568 20.9276 56.8395 20.9276 56.8222 20.9276C56.8049 20.9276 56.7877 20.9276 56.7704 20.9276C56.7531 20.9276 56.7358 20.9276 56.7185 20.9276C56.7012 20.9276 56.6839 20.9276 56.6667 20.9276C56.6494 20.9276 56.6321 20.9276 56.6148 20.9276C56.5975 20.9276 56.5802 20.9276 56.5629 20.9276C56.5457 20.9276 56.5284 20.9276 56.5111 20.9276C56.4938 20.9276 56.4765 20.9276 56.4592 20.9276C56.4419 20.9276 56.4246 20.9276 56.4074 20.9276C56.3901 20.9276 56.3728 20.9276 56.3555 20.9276C56.3382 20.9276 56.3209 20.9276 56.3036 20.9276C56.2864 20.9276 56.2691 20.9276 56.2518 20.9276C56.2345 20.9276 56.2172 20.9276 56.1999 20.9276C56.1826 20.9276 56.1654 20.9276 56.1481 20.9276C56.1308 20.9276 56.1135 20.9276 56.0962 20.9276C56.0789 20.9276 56.0616 20.9276 56.0443 20.9276C56.0271 20.9276 56.0098 20.9276 55.9925 20.9276C55.9752 20.9276 55.9579 20.9276 55.9406 20.9276C55.9233 20.9276 55.9061 20.9276 55.8888 20.9276C55.8715 20.9276 55.8542 20.9276 55.8369 20.9276C55.8196 20.9276 55.8023 20.9276 55.785 20.9276C55.7678 20.9276 55.7505 20.9276 55.7332 20.9276C55.7159 20.9276 55.6986 20.9276 55.6813 20.9276C55.664 20.9276 55.6468 20.9276 55.6295 20.9276C55.6122 20.9276 55.5949 20.9276 55.5776 20.9276C55.5603 20.9276 55.543 20.9276 55.5258 20.9276C55.5085 20.9276 55.4912 20.9276 55.4739 20.9276C55.4566 20.9276 55.4393 20.9276 55.422 20.9276C55.4047 20.9276 55.3875 20.9276 55.3702 20.9276C55.3529 20.9276 55.3356 20.9276 55.3183 20.9276C55.301 20.9276 55.2837 20.9276 55.2665 20.9276C55.2492 20.9276 55.2319 20.9276 55.2146 20.9276C55.1973 20.9276 55.18 20.9276 55.1627 20.9276C55.1455 20.9276 55.1282 20.9276 55.1109 20.9276C55.0936 20.9276 55.0763 20.9276 55.059 20.9276C55.0417 20.9276 55.0244 20.9276 55.0072 20.9276C54.9899 20.9276 54.9726 20.9276 54.9553 20.9276C54.938 20.9276 54.9207 20.9276 54.9034 20.9276C54.8862 20.9276 54.8689 20.9276 54.8516 20.9276C54.8343 20.9276 54.817 20.9276 54.7997 20.9276C54.7824 20.9276 54.7652 20.9276 54.7479 20.9276C54.7306 20.9276 54.7133 20.9276 54.696 20.9276C54.6787 20.9276 54.6614 20.9276 54.6441 20.9276C54.6269 20.9276 54.6096 20.9276 54.5923 20.9276C54.575 20.9276 54.5577 20.9276 54.5404 20.9276C54.5231 20.9276 54.5059 20.9276 54.4886 20.9276C54.4713 20.9276 54.454 20.9276 54.4367 20.9276C54.4194 20.9276 54.4021 20.9276 54.3848 20.9276C54.3676 20.9276 54.3503 20.9276 54.333 20.9276C54.3157 20.9276 54.2984 20.9276 54.2811 20.9276C54.2638 20.9276 54.2466 20.9276 54.2293 20.9276C54.212 20.9276 54.1947 20.9276 54.1774 20.9276C54.1601 20.9276 54.1428 20.9276 54.1256 20.9276C54.1083 20.9276 54.091 20.9276 54.0737 20.9276C54.0564 20.9276 54.0391 20.9276 54.0218 20.9276C54.0045 20.9276 53.9873 20.9276 53.97 20.9276C53.9527 20.9276 53.9354 20.9276 53.9181 20.9276C53.9008 20.9276 53.8835 20.9276 53.8663 20.9276C53.849 20.9276 53.8317 20.9276 53.8144 20.9276C53.7971 20.9276 53.7798 20.9276 53.7625 20.9276C53.7453 20.9276 53.728 20.9276 53.7107 20.9276C53.6934 20.9276 53.6761 20.9276 53.6588 20.9276C53.6415 20.9276 53.6242 20.9276 53.607 20.9276C53.5897 20.9276 53.5724 20.9276 53.5551 20.9276C53.5378 20.9276 53.5205 20.9276 53.5032 20.9276C53.486 20.9276 53.4687 20.9276 53.4514 20.9276C53.4341 20.9276 53.4168 20.9276 53.3995 20.9276C53.3822 20.9276 53.365 20.9276 53.3477 20.9276C53.3304 20.9276 53.3131 20.9276 53.2958 20.9276C53.2785 20.9276 53.2612 20.9276 53.2439 20.9276C53.2267 20.9276 53.2094 20.9276 53.1921 20.9276C53.1748 20.9276 53.1575 20.9276 53.1402 20.9276C53.1229 20.9276 53.1057 20.9276 53.0884 20.9276C53.0711 20.9276 53.0538 20.9276 53.0365 20.9276C53.0192 20.9276 53.0019 20.9276 52.9846 20.9276C52.9674 20.9276 52.9501 20.9276 52.9328 20.9276C52.9155 20.9276 52.8982 20.9276 52.8809 20.9276C52.8636 20.9276 52.8464 20.9276 52.8291 20.9276C52.8118 20.9276 52.7945 20.9276 52.7772 20.9276C52.7599 20.9276 52.7426 20.9276 52.7254 20.9276C52.7081 20.9276 52.6908 20.9276 52.6735 20.9276C52.6562 20.9276 52.6389 20.9276 52.6216 20.9276C52.6043 20.9276 52.5871 20.9276 52.5698 20.9276C52.5525 20.9276 52.5352 20.9276 52.5179 20.9276C52.5006 20.9276 52.4833 20.9276 52.4661 20.9276C52.4488 20.9276 52.4315 20.9276 52.4142 20.9276C52.3969 20.9276 52.3796 20.9276 52.3623 20.9276C52.3451 20.9276 52.3278 20.9276 52.3105 20.9276C52.2932 20.9276 52.2759 20.9276 52.2586 20.9276C52.2413 20.9276 52.224 20.9276 52.2068 20.9276C52.1895 20.9276 52.1722 20.9276 52.1549 20.9276C52.1376 20.9276 52.1203 20.9276 52.103 20.9276C52.0858 20.9276 52.0685 20.9276 52.0512 20.9276C52.0339 20.9276 52.0166 20.9276 51.9993 20.9276C51.982 20.9276 51.9648 20.9276 51.9475 20.9276C51.9302 20.9276 51.9129 20.9276 51.8956 20.9276C51.8783 20.9276 51.861 20.9276 51.8437 20.9276C51.8265 20.9276 51.8092 20.9276 51.7919 20.9276C51.7746 20.9276 51.7573 20.9276 51.74 20.9276C51.7227 20.9276 51.7055 20.9276 51.6882 20.9276C51.6709 20.9276 51.6536 20.9276 51.6363 20.9276C51.619 20.9276 51.6017 20.9276 51.5844 20.9276C51.5672 20.9276 51.5499 20.9276 51.5326 20.9276C51.5153 20.9276 51.498 20.9276 51.4807 20.9276C51.4634 20.9276 51.4462 20.9276 51.4289 20.9276C51.4116 20.9276 51.3943 20.9276 51.377 20.9276C51.3597 20.9276 51.3424 20.9276 51.3252 20.9276C51.3079 20.9276 51.2906 20.9276 51.2733 20.9276C51.256 20.9276 51.2387 20.9276 51.2214 20.9276C51.2041 20.9276 51.1869 20.9276 51.1696 20.9276C51.1523 20.9276 51.135 20.9276 51.1177 20.9276C51.1004 20.9276 51.0831 20.9276 51.0659 20.9276C51.0486 20.9276 51.0313 20.9276 51.014 20.9276C50.9967 20.9276 50.9794 20.9276 50.9621 20.9276C50.9449 20.9276 50.9276 20.9276 50.9103 20.9276C50.893 20.9276 50.8757 20.9276 50.8584 20.9276C50.8411 20.9276 50.8238 20.9276 50.8066 20.9276C50.7893 20.9276 50.772 20.9276 50.7547 20.9276C50.7374 20.9276 50.7201 20.9276 50.7028 20.9276C50.6856 20.9276 50.6683 20.9276 50.651 20.9276C50.6337 20.9276 50.6164 20.9276 50.5991 20.9276C50.5818 20.9276 50.5646 20.9276 50.5473 20.9276C50.53 20.9276 50.5127 20.9276 50.4954 20.9276C50.4781 20.9276 50.4608 20.9276 50.4435 20.9276C50.4263 20.9276 50.409 20.9276 50.3917 20.9276C50.3744 20.9276 50.3571 20.9276 50.3398 20.9276C50.3225 20.9276 50.3053 20.9276 50.288 20.9276C50.2707 20.9276 50.2534 20.9276 50.2361 20.9276C50.2188 20.9276 50.2015 20.9276 50.1842 20.9276C50.167 20.9276 50.1497 20.9276 50.1324 20.9276C50.1151 20.9276 50.0978 20.9276 50.0805 20.9276C50.0632 20.9276 50.046 20.9276 50.0287 20.9276C50.0114 20.9276 49.9941 20.9276 49.9768 20.9276C49.9595 20.9276 49.9422 20.9276 49.925 20.9276C49.9077 20.9276 49.8904 20.9276 49.8731 20.9276C49.8558 20.9276 49.8385 20.9276 49.8212 20.9276C49.8039 20.9276 49.7867 20.9276 49.7694 20.9276C49.7521 20.9276 49.7348 20.9276 49.7175 20.9276C49.7002 20.9276 49.6829 20.9276 49.6657 20.9276C49.6484 20.9276 49.6311 20.9276 49.6138 20.9276C49.5965 20.9276 49.5792 20.9276 49.5619 20.9276C49.5447 20.9276 49.5274 20.9276 49.5101 20.9276C49.4928 20.9276 49.4755 20.9276 49.4582 20.9276C49.4409 20.9276 49.4236 20.9276 49.4064 20.9276C49.3891 20.9276 49.3718 20.9276 49.3545 20.9276C49.3372 20.9276 49.3199 20.9276 49.3026 20.9276C49.2854 20.9276 49.2681 20.9276 49.2508 20.9276C49.2335 20.9276 49.2162 20.9276 49.1989 20.9276C49.1816 20.9276 49.1644 20.9276 49.1471 20.9276C49.1298 20.9276 49.1125 20.9276 49.0952 20.9276C49.0779 20.9276 49.0606 20.9276 49.0433 20.9276C49.0261 20.9276 49.0088 20.9276 48.9915 20.9276C48.9742 20.9276 48.9569 20.9276 48.9396 20.9276C48.9223 20.9276 48.9051 20.9276 48.8878 20.9276C48.8705 20.9276 48.8532 20.9276 48.8359 20.9276C48.8186 20.9276 48.8013 20.9276 48.784 20.9276C48.7668 20.9276 48.7495 20.9276 48.7322 20.9276C48.7149 20.9276 48.6976 20.9276 48.6803 20.9276C48.663 20.9276 48.6458 20.9276 48.6285 20.9276C48.6112 20.9276 48.5939 20.9276 48.5766 20.9276C48.5593 20.9276 48.542 20.9276 48.5248 20.9276C48.5075 20.9276 48.4902 20.9276 48.4729 20.9276C48.4556 20.9276 48.4383 20.9276 48.421 20.9276C48.4037 20.9276 48.3865 20.9276 48.3692 20.9276C48.3519 20.9276 48.3346 20.9276 48.3173 20.9276C48.3 20.9276 48.2827 20.9276 48.2655 20.9276C48.2482 20.9276 48.2309 20.9276 48.2136 20.9276C48.1963 20.9276 48.179 20.9276 48.1617 20.9276C48.1445 20.9276 48.1272 20.9276 48.1099 20.9276C48.0926 20.9276 48.0753 20.9276 48.058 20.9276C48.0407 20.9276 48.0234 20.9276 48.0062 20.9276C47.9889 20.9276 47.9716 20.9276 47.9543 20.9276C47.937 20.9276 47.9197 20.9276 47.9024 20.9276C47.8852 20.9276 47.8679 20.9276 47.8506 20.9276C47.8333 20.9276 47.816 20.9276 47.7987 20.9276C47.7814 20.9276 47.7642 20.9276 47.7469 20.9276C47.7296 20.9276 47.7123 20.9276 47.695 20.9276C47.6777 20.9276 47.6604 20.9276 47.6431 20.9276C47.6259 20.9276 47.6086 20.9276 47.5913 20.9276C47.574 20.9276 47.5567 20.9276 47.5394 20.9276C47.5221 20.9276 47.5049 20.9276 47.4876 20.9276C47.4703 20.9276 47.453 20.9276 47.4357 20.9276C47.4184 20.9276 47.4011 20.9276 47.3839 20.9276C47.3666 20.9276 47.3493 20.9276 47.332 20.9276C47.3147 20.9276 47.2974 20.9276 47.2801 20.9276C47.2628 20.9276 47.2456 20.9276 47.2283 20.9276C47.211 20.9276 47.1937 20.9276 47.1764 20.9276C47.1591 20.9276 47.1418 20.9276 47.1246 20.9276C47.1073 20.9276 47.09 20.9276 47.0727 20.9276C47.0554 20.9276 47.0381 20.9276 47.0208 20.9276C47.0035 20.9276 46.9863 20.9276 46.969 20.9276C46.9517 20.9276 46.9344 20.9276 46.9171 20.9276C46.8998 20.9276 46.8825 20.9276 46.8653 20.9276C46.848 20.9276 46.8307 20.9276 46.8134 20.9276C46.7961 20.9276 46.7788 20.9276 46.7615 20.9276C46.7443 20.9276 46.727 20.9276 46.7097 20.9276C46.6924 20.9276 46.6751 20.9276 46.6578 20.9276C46.6405 20.9276 46.6232 20.9276 46.606 20.9276C46.5887 20.9276 46.5714 20.9276 46.5541 20.9276C46.5368 20.9276 46.5195 20.9276 46.5022 20.9276C46.485 20.9276 46.4677 20.9276 46.4504 20.9276C46.4331 20.9276 46.4158 20.9276 46.3985 20.9276C46.3812 20.9276 46.364 20.9276 46.3467 20.9276C46.3294 20.9276 46.3121 20.9276 46.2948 20.9276C46.2775 20.9276 46.2602 20.9276 46.2429 20.9276C46.2257 20.9276 46.2084 20.9276 46.1911 20.9276C46.1738 20.9276 46.1565 20.9276 46.1392 20.9276C46.1219 20.9276 46.1047 20.9276 46.0874 20.9276C46.0701 20.9276 46.0528 20.9276 46.0355 20.9276C46.0182 20.9276 46.0009 20.9276 45.9837 20.9276C45.9664 20.9276 45.9491 20.9276 45.9318 20.9276C45.9145 20.9276 45.8972 20.9276 45.8799 20.9276C45.8626 20.9276 45.8454 20.9276 45.8281 20.9276C45.8108 20.9276 45.7935 20.9276 45.7762 20.9276C45.7589 20.9276 45.7416 20.9276 45.7244 20.9276C45.7071 20.9276 45.6898 20.9276 45.6725 20.9276C45.6552 20.9276 45.6379 20.9276 45.6206 20.9276C45.6033 20.9276 45.5861 20.9276 45.5688 20.9276C45.5515 20.9276 45.5342 20.9276 45.5169 20.9276C45.4996 20.9276 45.4823 20.9276 45.4651 20.9276C45.4478 20.9276 45.4305 20.9276 45.4132 20.9276C45.3959 20.9276 45.3786 20.9276 45.3613 20.9276C45.3441 20.9276 45.3268 20.9276 45.3095 20.9276C45.2922 20.9276 45.2749 20.9276 45.2576 20.9276C45.2403 20.9276 45.223 20.9276 45.2058 20.9276C45.1885 20.9276 45.1712 20.9276 45.1539 20.9276C45.1366 20.9276 45.1193 20.9276 45.102 20.9276C45.0848 20.9276 45.0675 20.9276 45.0502 20.9276C45.0329 20.9276 45.0156 20.9276 44.9983 20.9276C44.981 20.9276 44.9638 20.9276 44.9465 20.9276C44.9292 20.9276 44.9119 20.9276 44.8946 20.9276C44.8773 20.9276 44.86 20.9276 44.8427 20.9276C44.8255 20.9276 44.8082 20.9276 44.7909 20.9276C44.7736 20.9276 44.7563 20.9276 44.739 20.9276C44.7217 20.9276 44.7045 20.9276 44.6872 20.9276C44.6699 20.9276 44.6526 20.9276 44.6353 20.9276C44.618 20.9276 44.6007 20.9276 44.5835 20.9276C44.5662 20.9276 44.5489 20.9276 44.5316 20.9276C44.5143 20.9276 44.497 20.9276 44.4797 20.9276C44.4624 20.9276 44.4452 20.9276 44.4279 20.9276C44.4106 20.9276 44.3933 20.9276 44.376 20.9276C44.3587 20.9276 44.3414 20.9276 44.3242 20.9276C44.3069 20.9276 44.2896 20.9276 44.2723 20.9276C44.255 20.9276 44.2377 20.9276 44.2204 20.9276C44.2031 20.9276 44.1859 20.9276 44.1686 20.9276C44.1513 20.9276 44.134 20.9276 44.1167 20.9276C44.0994 20.9276 44.0821 20.9276 44.0649 20.9276C44.0476 20.9276 44.0303 20.9276 44.013 20.9276C43.9957 20.9276 43.9784 20.9276 43.9611 20.9276C43.9439 20.9276 43.9266 20.9276 43.9093 20.9276C43.892 20.9276 43.8747 20.9276 43.8574 20.9276C43.8401 20.9276 43.8228 20.9276 43.8056 20.9276C43.7883 20.9276 43.771 20.9276 43.7537 20.9276C43.7364 20.9276 43.7191 20.9276 43.7018 20.9276C43.6846 20.9276 43.6673 20.9276 43.65 20.9276C43.6327 20.9276 43.6154 20.9276 43.5981 20.9276V21.9276ZM70.1501 21.9276C71.0931 21.9276 71.8682 22.1125 72.4813 22.7084L73.1783 21.9913C72.3004 21.138 71.2191 20.9276 70.1501 20.9276V21.9276ZM72.4856 22.7125C72.8384 23.0473 73.096 23.4696 73.2322 23.9365L74.1922 23.6565C74.0064 23.0198 73.6551 22.4437 73.174 21.9872L72.4856 22.7125ZM73.2322 23.9365C73.3684 24.4034 73.3782 24.898 73.2608 25.3699L74.2312 25.6114C74.3914 24.9678 74.3779 24.2932 74.1922 23.6565L73.2322 23.9365ZM73.2562 25.3901C71.8171 32.4002 70.372 39.4203 68.9208 46.4503L69.9002 46.6525C71.3514 39.6221 72.7966 32.6017 74.2358 25.5912L73.2562 25.3901ZM68.921 46.4496C68.7134 47.4484 68.3554 48.0853 67.8606 48.4816C67.3645 48.879 66.6573 49.0934 65.6289 49.0934V50.0934C66.7863 50.0934 67.7483 49.8528 68.4858 49.2621C69.2246 48.6703 69.6645 47.7862 69.9001 46.6531L68.921 46.4496ZM65.6289 49.0934H27.7233V50.0934H65.6289V49.0934ZM27.7233 49.0934C27.5116 49.0934 27.3089 49.0926 27.1503 49.1107C27.0076 49.1269 26.747 49.1708 26.5691 49.3941C26.3938 49.6141 26.4051 49.8759 26.4182 50.0183C26.433 50.1783 26.4745 50.3789 26.5177 50.5913L27.4976 50.392C27.4495 50.1553 27.4225 50.019 27.414 49.9264C27.41 49.8832 27.4131 49.8765 27.4109 49.8901C27.408 49.9087 27.3958 49.9612 27.3512 50.0173C27.3061 50.0739 27.2561 50.0987 27.235 50.1069C27.2193 50.113 27.2223 50.1089 27.2633 50.1043C27.3517 50.0942 27.4858 50.0934 27.7233 50.0934V49.0934ZM26.5177 50.5913C26.7041 51.5079 26.9115 52.3991 27.0591 53.3029L28.046 53.1417C27.8943 52.2131 27.6765 51.2719 27.4976 50.392L26.5177 50.5913ZM27.059 53.3023C27.1092 53.6116 27.2083 53.9491 27.4803 54.1888C27.7575 54.433 28.1127 54.4879 28.4583 54.4828L28.4433 53.4829C28.3212 53.4847 28.2443 53.4744 28.1973 53.462C28.1546 53.4508 28.1429 53.4398 28.1414 53.4385C28.1364 53.4341 28.0858 53.3869 28.0461 53.1423L27.059 53.3023ZM28.4531 54.4828C31.1165 54.4708 33.7802 54.4708 36.4362 54.4708V53.4708C33.7806 53.4708 31.1147 53.4708 28.4486 53.4828L28.4531 54.4828ZM36.4362 54.4708H65.2696V53.4708H36.4362V54.4708ZM65.314 54.4689C65.6489 54.439 65.9863 54.4803 66.304 54.5901L66.6306 53.645C66.1795 53.4891 65.7006 53.4304 65.2252 53.4728L65.314 54.4689ZM66.2773 54.5801C66.4963 54.67 66.682 54.8254 66.8091 55.025L67.6526 54.488C67.4147 54.1143 67.067 53.8233 66.6572 53.655L66.2773 54.5801ZM66.8091 55.025C66.9362 55.2246 66.9984 55.4587 66.9872 55.6951L67.9861 55.7424C68.007 55.2999 67.8906 54.8617 67.6526 54.488L66.8091 55.025ZM66.9872 55.6951C66.976 55.9315 66.8919 56.1586 66.7466 56.3454L67.5356 56.9597C67.8078 56.6101 67.9651 56.1849 67.9861 55.7424L66.9872 55.6951ZM66.7466 56.3454C66.6012 56.5321 66.4016 56.6693 66.1752 56.7381L66.466 57.6949C66.8898 57.566 67.2635 57.3092 67.5356 56.9597L66.7466 56.3454ZM66.1844 56.7354C65.9306 56.8072 65.6672 56.8384 65.4037 56.8277L65.3631 57.8268C65.7322 57.8418 66.1014 57.7982 66.4568 57.6976L66.1844 56.7354ZM65.3834 56.8273H27.9807V57.8273H65.3834V56.8273ZM27.9807 56.8273C27.0844 56.8273 26.4132 56.5996 25.9272 56.2003C25.4408 55.8005 25.0869 55.1852 24.9075 54.3106L23.9279 54.5114C24.1408 55.55 24.5864 56.3928 25.2923 56.9729C25.9988 57.5534 26.913 57.8273 27.9807 57.8273V56.8273ZM24.9075 54.3101C22.4143 42.2038 19.9192 30.0955 17.4221 17.9852L16.4427 18.1872C18.9398 30.2974 21.4349 42.4056 23.928 54.5118L24.9075 54.3101ZM17.4277 18.018C17.3811 17.6793 17.2408 17.3604 17.0227 17.0972L16.2527 17.7353C16.352 17.8551 16.4159 18.0003 16.4371 18.1544L17.4277 18.018ZM17.0227 17.0972C16.8046 16.834 16.5173 16.637 16.1932 16.5283L15.8752 17.4764C16.0227 17.5258 16.1534 17.6155 16.2527 17.7353L17.0227 17.0972ZM16.2272 16.5411C14.2352 15.7073 12.3592 14.8583 10.3542 14.0117L9.96519 14.9329C11.8884 15.745 13.8989 16.6506 15.8411 17.4635L16.2272 16.5411ZM10.3269 14.0011C9.88628 13.8447 9.52303 13.5243 9.31285 13.1067L8.4196 13.5563C8.7456 14.2041 9.30906 14.701 9.99249 14.9435L10.3269 14.0011ZM9.36618 13.3381L9.38115 12.1973L8.38124 12.1842L8.36627 13.3249L9.36618 13.3381ZM46.0833 24.2661H22.5165V25.2661H46.0833V24.2661ZM22.5165 24.2661C22.3256 24.2661 22.1386 24.2653 21.9915 24.2818C21.8603 24.2966 21.6093 24.3369 21.4345 24.5504C21.2599 24.7638 21.2696 25.0178 21.2811 25.1504C21.294 25.2993 21.332 25.4837 21.3708 25.6743L22.3507 25.4747C22.3299 25.3725 22.3131 25.2896 22.3002 25.2186C22.2873 25.1469 22.2803 25.0981 22.2773 25.0639C22.2742 25.0277 22.2774 25.0272 22.2742 25.0462C22.2702 25.0705 22.2555 25.1262 22.2084 25.1838C22.1612 25.2415 22.1093 25.267 22.086 25.2758C22.0678 25.2828 22.0673 25.2796 22.1031 25.2756C22.1368 25.2718 22.1856 25.269 22.2579 25.2676C22.3295 25.2661 22.4131 25.2661 22.5165 25.2661V24.2661ZM21.3709 25.6749C22.7303 32.3082 24.0957 38.9405 25.4671 45.5718L26.4464 45.3692C25.0751 38.7385 23.7098 32.1068 22.3506 25.4741L21.3709 25.6749ZM25.4664 45.5686C25.5306 45.8893 25.6415 46.2269 25.9189 46.4636C26.2006 46.7039 26.5562 46.758 26.9029 46.758V45.758C26.6358 45.758 26.5766 45.7102 26.5679 45.7028C26.5549 45.6917 26.4996 45.6356 26.447 45.3724L25.4664 45.5686ZM26.9036 46.758C39.7 46.74 52.4964 46.74 65.2929 46.758L65.2943 45.758C52.4969 45.74 39.6995 45.74 26.9022 45.758L26.9036 46.758ZM65.2936 46.758C65.6486 46.758 66.0047 46.6995 66.2852 46.4567C66.5596 46.2192 66.6687 45.8835 66.7326 45.5705L65.7528 45.3705C65.7 45.6293 65.6459 45.6874 65.6307 45.7006C65.6215 45.7086 65.5614 45.758 65.2936 45.758V46.758ZM66.7327 45.5702C68.0779 38.9557 69.4342 32.3442 70.8014 25.7357L69.8221 25.5331C68.4547 32.1427 67.0982 38.7553 65.7528 45.3709L66.7327 45.5702ZM70.8016 25.7347C70.8434 25.5305 70.8837 25.3346 70.8968 25.1761C70.9087 25.0318 70.9148 24.7717 70.7333 24.5555C70.5547 24.3426 70.3003 24.2999 70.1581 24.2837C69.9998 24.2657 69.7986 24.2661 69.5872 24.2661V25.2661C69.8218 25.2661 69.9564 25.2672 70.0452 25.2773C70.0865 25.282 70.0916 25.2862 70.0782 25.2811C70.0602 25.2743 70.0123 25.2519 69.9673 25.1983C69.9218 25.1441 69.9072 25.0913 69.9032 25.0686C69.9001 25.0515 69.9035 25.0545 69.9002 25.0938C69.8932 25.1789 69.8684 25.3071 69.8219 25.534L70.8016 25.7347ZM69.5872 24.2661H46.0833V25.2661H69.5872V24.2661Z" fill="white" mask="url(#path-1-inside-1_1_295)"/>
<path d="M41.4817 64.4847L41.4819 64.4854C41.7555 65.8237 41.5155 67.216 40.8096 68.3855C40.1036 69.5549 38.9835 70.4159 37.6718 70.7973L37.6718 70.7973L37.6669 70.7988C37.5373 70.8395 37.4061 70.8835 37.2774 70.9267C37.2184 70.9465 37.1599 70.9661 37.1023 70.9851L35.0138 70.9909C33.4358 70.5226 32.1517 69.7308 31.3011 68.2907C30.76 67.372 30.5009 66.3147 30.5558 65.25C30.6108 64.1858 30.9771 63.1611 31.6094 62.3033C32.3347 61.3434 33.1734 60.6841 34.1108 60.3255C35.0478 59.9669 36.1 59.9024 37.2627 60.1584C38.4255 60.4143 39.3602 60.9173 40.0622 61.6384C40.7644 62.3597 41.2457 63.3117 41.4817 64.4847ZM35.0414 67.9882C35.1973 68.0517 35.3584 68.1001 35.5226 68.1331L35.4791 68.1767L36.0529 68.1973C36.4086 68.2101 36.7631 68.1499 37.0946 68.0204C37.4261 67.891 37.7275 67.6951 37.9804 67.4447C38.2333 67.1943 38.4322 66.8947 38.5649 66.5645C38.6971 66.2356 38.7608 65.8832 38.7522 65.5289C38.7542 65.1751 38.6866 64.8244 38.5532 64.4967C38.4193 64.1677 38.2217 63.8684 37.9718 63.616C37.7219 63.3637 37.4245 63.1632 37.0969 63.026C36.7692 62.8889 36.4177 62.8179 36.0625 62.817L36.0625 62.8168L36.0521 62.8172C35.352 62.8447 34.6879 63.1347 34.1918 63.6295C33.6957 64.1244 33.4041 64.7878 33.3749 65.4878L33.3747 65.4878L33.3747 65.497C33.3729 65.8517 33.4417 66.2031 33.577 66.531C33.7123 66.8588 33.9115 67.1565 34.1629 67.4067C34.4143 67.6568 34.7129 67.8545 35.0414 67.9882Z" fill="#A88030" stroke="white" stroke-width="0.5"/>
<path d="M51.4302 68.4527L51.4301 68.4525C50.8202 67.479 50.5294 66.3394 50.5983 65.1927C50.6672 64.046 51.0924 62.9494 51.8145 62.056C52.5366 61.1626 53.5195 60.5168 54.6262 60.2089C55.7329 59.9009 56.9082 59.9461 57.988 60.3382C59.0677 60.7303 59.9982 61.4497 60.6495 62.3959C61.3008 63.3422 61.6404 64.4682 61.621 65.6168C61.6016 66.7654 61.2241 67.8793 60.5413 68.803C59.8584 69.7268 58.9042 70.4143 57.8118 70.7697L57.8118 70.7697L57.8092 70.7706C57.6581 70.8216 57.5081 70.8694 57.3562 70.9179C57.2808 70.9419 57.2048 70.9662 57.128 70.991H55.0508C53.5366 70.5426 52.2732 69.802 51.4302 68.4527ZM55.8367 68.1746V68.188L56.077 68.1973C56.4329 68.2109 56.7879 68.1515 57.1199 68.0227C57.452 67.8939 57.7541 67.6984 58.0077 67.4482C58.2612 67.1981 58.4608 66.8987 58.5941 66.5684C58.7269 66.2395 58.7911 65.8869 58.7829 65.5323C58.7858 65.1782 58.7188 64.8269 58.5858 64.4986C58.4522 64.169 58.2547 63.8692 58.0046 63.6163C57.7545 63.3635 57.4568 63.1627 57.1287 63.0255C56.8006 62.8883 56.4486 62.8174 56.0929 62.817V62.8169L56.0849 62.8171C55.3713 62.8392 54.6939 63.1368 54.1949 63.6475C53.6959 64.1582 53.414 64.8422 53.4084 65.5562L53.4083 65.5562L53.4085 65.5625C53.4206 66.2641 53.7085 66.9327 54.21 67.4236C54.6512 67.8556 55.2267 68.1194 55.8367 68.1746Z" fill="#A88030" stroke="white" stroke-width="0.5"/>
<path d="M33.2992 31.2477L33.2993 31.2477L33.2995 31.2422C33.313 30.958 33.4184 30.6859 33.5998 30.4668C33.7805 30.2486 34.027 30.0947 34.3024 30.0281C34.6348 29.9586 34.9738 29.9255 35.3135 29.9294L35.3135 29.9294H35.3164H35.3584H35.4004H35.4425H35.4845H35.5265H35.5686H35.6106H35.6527H35.6947H35.7367H35.7788H35.8208H35.8628H35.9049H35.9469H35.9889H36.031H36.073H36.115H36.1571H36.1991H36.2411H36.2832H36.3252H36.3672H36.4093H36.4513H36.4934H36.5354H36.5774H36.6195H36.6615H36.7035H36.7456H36.7876H36.8296H36.8717H36.9137H36.9557H36.9978H37.0398H37.0819H37.1239H37.1659H37.208H37.25H37.292H37.3341H37.3761H37.4181H37.4602H37.5022H37.5442H37.5863H37.6283H37.6704H37.7124H37.7544H37.7965H37.8385H37.8805H37.9226H37.9646H38.0066H38.0487H38.0907H38.1328H38.1748H38.2168H38.2589H38.3009H38.3429H38.385H38.427H38.469H38.5111H38.5531H38.5952H38.6372H38.6792H38.7213H38.7633H38.8053H38.8474H38.8894H38.9314H38.9735H39.0155H39.0576H39.0996H39.1416H39.1837H39.2257H39.2677H39.3098H39.3518H39.3939H39.4359H39.4779H39.52H39.562H39.604H39.6461H39.6881H39.7302H39.7722H39.8142H39.8563H39.8983H39.9403H39.9824H40.0244H40.0664H40.1085H40.1505H40.1926H40.2346H40.2766H40.3187H40.3607H40.4027H40.4448H40.4868H40.5289H40.5709H40.6129H40.655H40.697H40.739H40.7811H40.8231H40.8652H40.9072H40.9492H40.9913H41.0333H41.0754H41.1174H41.1594H41.2015H41.2435H41.2855H41.3276H41.3696H41.4117H41.4537H41.4957H41.5378H41.5798H41.6218H41.6639H41.7059H41.748H41.79H41.832H41.8741H41.9161H41.9582H42.0002H42.0422H42.0843H42.1263H42.1683H42.2104H42.2524H42.2945H42.3365H42.3785H42.4206H42.4626H42.5047H42.5467H42.5887H42.6308H42.6728H42.7148H42.7569H42.7989H42.841H42.883H42.925H42.9671H43.0091H43.0512H43.0932H43.1352H43.1773H43.2193H43.2614H43.3034H43.3454H43.3875H43.4295H43.4716H43.5136H43.5556H43.5977H43.6397H43.6817H43.7238H43.7658H43.8079H43.8499H43.8919H43.934H43.976H44.0181H44.0601H44.1021H44.1442H44.1862H44.2283H44.2703H44.3123H44.3544H44.3964H44.4385H44.4805H44.5225H44.5646H44.6066H44.6487H44.6907H44.7327H44.7748H44.8168H44.8589H44.9009H44.9429H44.985H45.027H45.0691H45.1111H45.1531H45.1952H45.2372H45.2793H45.3213H45.3633H45.4054H45.4474H45.4895H45.5735H45.6156H45.6576H45.6997H45.7417H45.7837H45.8258H45.8678H45.9099H45.9519H45.9939H46.036H46.078H46.1621H46.2041H46.2462H46.2882H46.3303H46.4144H46.4564H46.4984H46.5825H46.6246H46.6666H46.7507H46.7927H46.8348H46.9188H46.9609H47.0029H47.045H47.087H47.129H47.1711H47.2131H47.2552H47.2972H47.3393H47.3813H47.4233H47.5074H47.5495H47.5915H47.6335H47.6756H47.7176H47.7597H47.8017H47.8438H47.8858H47.9278H47.9699H48.0119H48.096H48.138H48.1801H48.2221H48.2642H48.3483H48.4323H48.4744H48.5164H48.6005H48.6846H48.7266H48.7687H48.8528H48.9368H48.9789H49.0209H49.063H49.105H49.1471H49.1891H49.2732H49.3152H49.3573H49.4414H49.5254H49.5675H49.6095H49.6516H49.6936H49.7777H49.8618H49.9038H49.9459H50.0299H50.072H50.114H50.1561H50.1981H50.2402H50.2822H50.3663H50.4083H50.4504H50.5345H50.5765H50.6185H50.7026H50.7447H50.7867H50.8288H50.8708H50.9549H50.9969H51.039H51.1231H51.2072H51.2492H51.2912H51.3333H51.3753H51.4594H51.5015H51.5435H51.5855H51.6276H51.6696H51.7117H51.7537H51.7958H51.8378H51.8799H51.9219H51.9639H52.006H52.048H52.1321H52.1742H52.2162H52.2582H52.3003H52.3423H52.3844H52.4264H52.4685H52.5105H52.5526H52.5946H52.6366H52.6787H52.7207H52.7628H52.8048H52.8889H52.931H52.973H53.015H53.0571H53.1412H53.1832H53.2253H53.2673H53.3094H53.3514H53.3934H53.4355H53.4775H53.5616H53.6037H53.6457H53.6878H53.7298H53.7718H53.8139H53.8559H53.898H53.94H53.9821H54.0241H54.0662H54.1082H54.1502H54.1923H54.2343H54.2764H54.3184H54.3605H54.4025H54.4446H54.4866H54.5287H54.5707H54.6127H54.6548H54.6968H54.7389H54.7809H54.823H54.865H54.9071H54.9491H54.9912H55.0332H55.0752H55.1173H55.1593H55.2014H55.2434H55.2855H55.3275H55.3696H55.4116H55.4537H55.4957H55.5377H55.5798H55.6218H55.6639H55.7059H55.748H55.79H55.8321H55.8741H55.9162H55.9582H56.0003H56.0423H56.0843H56.1264H56.1684H56.2105H56.2525H56.2946H56.3366H56.3787H56.4207H56.4628H56.5048H56.5469H56.5889H56.6309H56.673H56.715H56.7571H56.7991L56.8412 29.9294L56.8441 29.9294C57.1826 29.9255 57.5204 29.9585 57.8517 30.028C58.1571 30.1031 58.428 30.2799 58.6196 30.5294C58.8118 30.7797 58.9128 31.0883 58.9057 31.4039C58.8971 31.7367 58.7712 32.0557 58.5501 32.3047C58.3313 32.5511 58.0333 32.7132 57.7078 32.7629C57.4898 32.7753 57.2713 32.775 57.0534 32.7623L57.0461 32.7619H57.0388H57.0172H56.9957H56.9741H56.9525H56.931H56.9094H56.8878H56.8663H56.8447H56.8231H56.8016H56.78H56.7584H56.7369H56.7153H56.6937H56.6722H56.6506H56.629H56.6075H56.5859H56.5643H56.5428H56.5212H56.4996H56.4781H56.4565H56.4349H56.4134H56.3918H56.3702H56.3487H56.3271H56.3056H56.284H56.2624H56.2409H56.2193H56.1977H56.1762H56.1546H56.133H56.1115H56.0899H56.0684H56.0468H56.0252H56.0037H55.9821H55.9605H55.939H55.9174H55.8959H55.8743H55.8527H55.8312H55.6587H55.4862H55.4646H55.4431H55.4215H55.4H55.3784H55.3568H55.3353H55.3137H55.2922H55.2706H55.249H55.2275H55.2059H55.1844H55.1628H55.1412H55.1197H55.0981H55.0766H55.055H55.0334H55.0119H54.9903H54.9688H54.9472H54.9256H54.9041H54.8825H54.861H54.8394H54.8179H54.7963H54.7747H54.7532H54.7316H54.7101H54.6885H54.667H54.6454H54.6238H54.6023H54.5807H54.5592H54.5376H54.5161H54.4945H54.4729H54.4514H54.4298H54.4083H54.3867H54.3652H54.3436H54.3221H54.3005H54.2789H54.2574H54.2358H54.2143H54.1927H54.1712H54.1496H54.1281H54.1065H54.085H54.0634H54.0418H54.0203H53.9987H53.9772H53.9556H53.9341H53.9125H53.891H53.8694H53.8479H53.8263H53.8048H53.7832H53.7616H53.7401H53.7185H53.697H53.6754H53.6539H53.6323H53.6108H53.5892H53.5677H53.5461H53.5246H53.503H53.4815H53.4599H53.4384H53.4168H53.3953H53.3737H53.3521H53.3306H53.309H53.2875H53.2659H53.2444H53.2228H53.2013H53.1797H53.1582H53.1366H53.1151H53.0935H53.072H53.0504H53.0289H53.0073H52.9858H52.9642H52.9427H52.9211H52.8996H52.878H52.8565H52.8349H52.8134H52.7918H52.7703H52.7487H52.7272H52.7056H52.6841H52.6625H52.641H52.6195H52.5979H52.5764H52.5548H52.5333H52.5117H52.4902H52.4686H52.4471H52.4255H52.404H52.3824H52.3609H52.3393H52.3178H52.2962H52.2747H52.2531H52.2316H52.21H52.1885H52.167H52.1454H52.1239H52.1023H52.0808H52.0592H52.0377H52.0161H51.9946H51.973H51.9515H51.93H51.9084H51.8869H51.8653H51.8438H51.8222H51.8007H51.7791H51.7576H51.736H51.7145H51.693H51.6714H51.6499H51.6283H51.6068H51.5852H51.5637H51.5421H51.5206H51.4991H51.4775H51.456H51.4344H51.4129H51.3913H51.3698H51.3483H51.3267H51.3052H51.2836H51.2621H51.2405H51.219H51.1975H51.1759H51.1544H51.1328H51.1113H51.0897H51.0682H51.0467H51.0251H51.0036H50.982H50.9605H50.939H50.9174H50.8959H50.8743H50.8528H50.8313H50.8097H50.7882H50.7666H50.7451H50.7235H50.702H50.6805H50.6589H50.6374H50.6158H50.5943H50.5728H50.5512H50.5297H50.5082H50.4866H50.4651H50.4435H50.422H50.4005H50.3789H50.3574H50.3358H50.3143H50.2928H50.2712H50.2497H50.2281H50.2066H50.1851H50.1635H50.142H50.1205H50.0989H50.0774H50.0558H50.0343H50.0128H49.9912H49.9697H49.9482H49.9266H49.9051H49.8835H49.862H49.8405H49.8189H49.7974H49.7759H49.7543H49.7328H49.7113H49.6897H49.6682H49.6466H49.6251H49.6036H49.582H49.5605H49.539H49.5174H49.4959H49.4744H49.4528H49.4313H49.4098H49.3882H49.3667H49.3452H49.3236H49.3021H49.2806H49.259H49.2375H49.216H49.1944H49.1729H49.1514H49.1298H49.1083H49.0868H49.0652H49.0437H49.0221H49.0006H48.9791H48.9576H48.936H48.7638H48.5915H48.57H48.5484H48.5269H48.5054H48.4839H48.4623H48.4408H48.4193H48.3977H48.3762H48.3547H48.3331H48.3116H48.2901H48.2685H48.247H48.2255H48.204H48.1824H48.1609H48.1394H48.1178H48.0963H48.0748H48.0533H48.0317H48.0102H47.9887H47.9671H47.9456H47.9241H47.9026H47.881H47.8595H47.838H47.8164H47.7949H47.7734H47.7519H47.7303H47.7088H47.6873H47.6657H47.6442H47.6227H47.6012H47.5796H47.5581H47.5366H47.5151H47.4935H47.472H47.4505H47.429H47.4074H47.3859H47.3644H47.3428H47.3213H47.2998H47.2783H47.2567H47.2352H47.2137H47.1922H47.1706H47.1491H47.1276H47.1061H47.0845H47.063H47.0415H47.02H46.9984H46.9769H46.9554H46.9339H46.9123H46.8908H46.8693H46.8478H46.8262H46.8047H46.7832H46.7617H46.7402H46.7186H46.6971H46.6756H46.6541H46.6325H46.611H46.5895H46.568H46.5464H46.5249H46.5034H46.4819H46.4604H46.4388H46.4173H46.3958H46.3743H46.3527H46.3312H46.3097H46.2882H46.2667H46.2451H46.2236H46.2021H46.1806H46.1591H46.1375H46.116H46.0945H46.073H46.0515H46.0299H46.0084H45.9865H45.9646H45.9427H45.9208H45.8989H45.877H45.8551H45.8332H45.8113H45.7895H45.7676H45.7457H45.7238H45.7019H45.68H45.6581H45.6362H45.6143H45.5924H45.5705H45.5486H45.5267H45.5048H45.4829H45.461H45.4391H45.4172H45.3953H45.3734H45.3515H45.3296H45.3077H45.2858H45.2638H45.2419H45.22H45.1981H45.1762H45.1543H45.1324H45.1105H45.0886H45.0667H45.0448H45.0229H45.001H44.9791H44.9572H44.9353H44.9134H44.8915H44.8696H44.8477H44.8257H44.8038H44.7819H44.76H44.7381H44.7162H44.6943H44.6724H44.6505H44.6286H44.6067H44.5848H44.5629H44.5409H44.519H44.4971H44.4752H44.4533H44.4314H44.4095H44.3876H44.3657H44.3438H44.3218H44.2999H44.278H44.2561H44.2342H44.2123H44.1904H44.1685H44.1466H44.1246H44.1027H44.0808H44.0589H44.037H44.0151H43.9932H43.9713H43.9494H43.9274H43.9055H43.8836H43.8617H43.8398H43.8179H43.796H43.774H43.7521H43.7302H43.7083H43.6864H43.6645H43.6426H43.6206H43.5987H43.5768H43.5549H43.533H43.5111H43.4892H43.4672H43.4453H43.4234H43.4015H43.3796H43.3577H43.3358H43.3138H43.2919H43.27H43.2481H43.2262H43.2043H43.1824H43.1604H43.1385H43.1166H43.0947H43.0728H43.0509H43.0289H43.007H42.9851H42.9632H42.9413H42.9194H42.8974H42.8755H42.8536H42.8317H42.8098H42.7879H42.766H42.744H42.7221H42.7002H42.6783H42.6564H42.6345H42.6125H42.5906H42.5687H42.5468H42.5249H42.503H42.481H42.4591H42.4372H42.4153H42.3934H42.3715H42.3495H42.3276H42.3057H42.2838H42.2619H42.24H42.2181H42.1961H42.1742H42.1523H42.1304H42.1085H42.0866H42.0646H42.0427H42.0208H41.9989H41.977H41.9551H41.9331H41.9112H41.8893H41.8674H41.8455H41.8236H41.8017H41.7797H41.7578H41.7359H41.714H41.6921H41.6702H41.6482H41.6263H41.6044H41.5825H41.5606H41.5387H41.5168H41.4948H41.4729H41.451H41.4291H41.4072H41.3853H41.3634H41.3415H41.3195H41.2976H41.2757H41.2538H41.2319H41.21H41.1881H41.1661H41.1442H41.1223H41.1004H41.0785H41.0566H41.0347H41.0128H40.9908H40.9689H40.947H40.9251H40.9032H40.8813H40.8594H40.8375H40.8156H40.7936H40.7717H40.7498H40.7279H40.706H40.6841H40.6622H40.6403H40.6184H40.5965H40.5746H40.5526H40.5307H40.5088H40.4869H40.465H40.4431H40.4212H40.3993H40.3774H40.3555H40.3336H40.3117H40.2897H40.2678H40.2459H40.224H40.2021H40.1802H40.1583H40.1364H40.1145H40.0926H40.0707H40.0488H40.0269H40.005H39.9831H39.9612H39.9393H39.9174H39.8955H39.8736H39.8516H39.8297H39.8078H39.7859H39.764H39.7421H39.7202H39.6983H39.6764H39.6545H39.6326H39.6107H39.5888H39.5669H39.545H39.5231H39.5012H39.4793H39.4574H39.4355H39.4136H39.3917H39.3698H39.3479H39.326H39.3041H39.2823H39.2604H39.2385H39.2166H39.1947H39.1728H39.1509H39.129H39.1071H39.0852H39.0633H39.0414H39.0195H38.9976H38.9757H38.9538H38.9319H38.91H38.8882H38.8663H38.8444H38.8225H38.8006H38.7787H38.7568H38.7349H38.713H38.6911H38.6693H38.6474H38.6255H38.6036H38.5817H38.5598H38.5379H38.516H38.4942H38.4723H38.4504H38.4285H38.4066H38.3847H38.3628H38.341H38.3191H38.2972H38.2753H38.2534H38.2315H38.2097H38.1878H38.1659H38.144H38.1221H38.1003H38.0784H38.0565H38.0346H38.0127H37.9909H37.969H37.9471H37.9252H37.9033H37.8815H37.8596H37.8377H37.8158H37.794H37.7721H37.7502H37.7283H37.7065H37.6846H37.6627H37.6409H37.619H37.5971H37.5752H37.5534H37.5315H37.5096H37.4878H37.4659H37.444H37.4221H37.4003H37.3784H37.3565H37.3347H37.3128H37.2909H37.2691H37.2472H37.2253H37.2035H37.1816H37.1598H37.1379H37.116H37.0942H37.0723H37.0504H37.0286H37.0067H36.9849H36.963H36.9411H36.9193H36.8974H36.8756H36.8537H36.8319H36.81H36.7881H36.7663H36.7444H36.7226H36.7007H36.6789H36.657H36.6352H36.6133H36.5915H36.5696H36.5478H36.5259H36.5041H36.4822H36.4604H36.4385H36.4167H36.3948H36.373H36.3511H36.3293H36.3074H36.2856H36.2637H36.2419H36.2201H36.1982H36.1764H36.1545H36.1327H36.1108H36.089H36.0672H36.0453H36.0235H36.0016H35.9798H35.958H35.9361H35.9143H35.8925H35.8706H35.8488H35.827H35.8051H35.7833H35.7615H35.7396H35.7178H35.696H35.6741H35.6523H35.6305H35.6086H35.5868H35.565H35.5432H35.5213H35.4995H35.4777H35.4559H35.434H35.4122H35.3904H35.3686H35.3467H35.3249H35.3031H35.2813H35.2595H35.2376H35.2158H35.194H35.1722H35.1504H35.1286H35.1067H35.0849H35.0631H35.0413H35.0195H34.9977H34.9759H34.954H34.9322H34.9104H34.8886H34.8668H34.845H34.8232H34.8014C34.3042 32.7619 33.9165 32.5956 33.6621 32.335C33.4085 32.0752 33.2677 31.7021 33.2992 31.2477Z" fill="#A88030" stroke="white" stroke-width="0.5"/>
<path d="M56.1525 38.2501H56.162L56.1713 38.2494C56.4407 38.2291 56.71 38.2881 56.9462 38.4193C57.1823 38.5504 57.3748 38.7478 57.4999 38.9872L57.4996 38.9874L57.5061 38.9984C57.6281 39.2052 57.6893 39.4423 57.6826 39.6823C57.676 39.9224 57.6018 40.1557 57.4686 40.3555L57.4629 40.364L57.458 40.3729C57.3675 40.5358 57.2417 40.6764 57.0898 40.7843C56.9381 40.892 56.7643 40.9644 56.5811 40.9962C56.2409 41.0519 55.897 41.0817 55.5523 41.0855H55.517H55.4802H55.4435H55.4068H55.37H55.3333H55.2966H55.2598H55.2231H55.1863H55.1496H55.1129H55.0761H55.0394H55.0027H54.9659H54.9292H54.8924H54.8557H54.819H54.7822H54.7455H54.7088H54.672H54.6353H54.5985H54.5618H54.5251H54.4883H54.4516H54.4149H54.3781H54.3414H54.3046H54.2679H54.2312H54.1944H54.1577H54.1209H54.0842H54.0475H54.0107H53.974H53.9373H53.9005H53.8638H53.827H53.7903H53.7536H53.7168H53.6801H53.6433H53.6066H53.5699H53.5331H53.4964H53.4596H53.4229H53.3862H53.3494H53.3127H53.276H53.2392H53.2025H53.1657H53.129H53.0923H53.0555H53.0188H52.982H52.9453H52.9086H52.8718H52.8351H52.7983H52.7616H52.7249H52.6881H52.6514H52.6146H52.5779H52.5412H52.5044H52.4677H52.4309H52.3942H52.3575H52.3207H52.284H52.2472H52.2105H52.1737H52.137H52.1003H52.0635H52.0268H51.99H51.9533H51.9166H51.8798H51.8431H51.8063H51.7696H51.7329H51.6961H51.6594H51.6226H51.5859H51.5491H51.5124H51.4757H51.4389H51.4022H51.3654H51.3287H51.292H51.2552H51.2185H51.1817H51.145H51.1082H51.0715H51.0348H50.998H50.9613H50.9245H50.8878H50.851H50.8143H50.7776H50.7408H50.7041H50.6673H50.6306H50.5939H50.5571H50.5204H50.4836H50.4469H50.4101H50.3734H50.3367H50.2999H50.2632H50.2264H50.1897H50.1529H50.1162H50.0794H50.0427H50.006H49.9692H49.9325H49.8957H49.859H49.8222H49.7855H49.7488H49.712H49.6753H49.6385H49.6018H49.565H49.5283H49.4915H49.4548H49.4181H49.3813H49.3446H49.3078H49.2711H49.2343H49.1976H49.1608H49.1241H49.0874H49.0506H49.0139H48.9771H48.9404H48.9036H48.8669H48.8301H48.7934H48.7567H48.7199H48.6832H48.6464H48.6097H48.5729H48.5362H48.4994H48.4627H48.4259H48.3892H48.3525H48.3157H48.279H48.2422H48.2055H48.1687H48.132H48.0952H48.0585H48.0217H47.985H47.9483H47.9115H47.8748H47.838H47.8013H47.7645H47.7278H47.691H47.6543H47.6175H47.5808H47.544H47.5073H47.4706H47.4338H47.3971H47.3603H47.3236H47.2868H47.2501H47.2133H47.1766H47.1398H47.1031H47.0663H47.0296H46.9928H46.9561H46.9193H46.8826H46.8459H46.8091H46.7724H46.7356H46.6989H46.6621H46.6254H46.5886H46.5519H46.5151H46.4784H46.4416H46.4049H46.3681H46.3314H46.2946H46.2579H46.2211H46.1844H46.1476H46.1109H46.0741H46.0374H46.0006H45.9639H45.9272H45.8904H45.8537H45.8169H45.7802H45.7434H45.7067H45.6699H45.6332H45.5964H45.5597H45.5229H45.4862H45.4494H45.4127H45.3759H45.3392H45.3024H45.2657H45.2289H45.1922H45.1554H45.1187H45.0819H45.0452H45.0084H44.9717H44.9349H44.8982H44.8614H44.8247H44.7879H44.7512H44.7144H44.6777H44.6409H44.6042H44.5674H44.5307H44.4939H44.4572H44.4204H44.3837H44.3469H44.3102H44.2734H44.2367H44.1999H44.1632H44.1264H44.0897H44.0529H44.0162H43.9794H43.9427H43.9059H43.8692H43.8324H43.7957H43.7589H43.7222H43.6854H43.6487H43.6119H43.5752H43.5384H43.5016H43.4649H43.4281H43.3914H43.3546H43.3179H43.2811H43.2444H43.2076H43.1709H43.1341H43.0974H43.0606H43.0239H42.9871H42.9504H42.9136H42.8769H42.8401H42.8034H42.7666H42.7299H42.6931H42.6564H42.6196H42.5828H42.5461H42.5093H42.4726H42.4358H42.3991H42.3623H42.3256H42.2888H42.2521H42.2153H42.1786H42.1418H42.1051H42.0683H42.0315H41.9948H41.958H41.9213H41.8845H41.8478H41.811H41.7743H41.7375H41.7008H41.664H41.6273H41.5905H41.5538H41.517H41.4802H41.4435H41.4067H41.37H41.3332H41.2965H41.2597H41.223H41.1862H41.1495H41.1127H41.0759H41.0392H41.0024H40.9657H40.9289H40.8922H40.8554H40.8187H40.7819H40.7452H40.7084H40.6716H40.6349H40.5981H40.5614H40.5246H40.4879H40.4511H40.4144H40.3776H40.3408H40.3041H40.2673H40.2306H40.1938H40.1571H40.1203H40.0836H40.0468H40.01H39.9733H39.9365H39.8998H39.863H39.8263H39.7895H39.7527H39.716H39.6792H39.6425H39.6057H39.569H39.5322H39.4955H39.4587H39.4219H39.3852H39.3484H39.3117H39.2749H39.2382H39.2014H39.1646H39.1279H39.0911H39.0544H39.0176H38.9809H38.9441H38.9073H38.8706H38.8338H38.7971H38.7603H38.7236H38.6868H38.65H38.6133H38.5765H38.5398H38.503H38.4663H38.4295H38.3927H38.356H38.3192H38.2825H38.2457H38.2089H38.1722H38.1354H38.0987H38.0619H38.0252H37.9884H37.9516H37.9149H37.8781H37.8414H37.8046H37.7678H37.7311H37.6943H37.6576H37.6208H37.5841H37.5473H37.5105H37.4738H37.437H37.4003H37.3635H37.3267H37.29H37.2532H37.2165H37.1797H37.1429H37.1062H37.0694H37.0327H36.9959H36.9591H36.9224H36.8856H36.8489H36.8121H36.7753H36.7386H36.7386C36.4138 41.0856 36.0895 41.0624 35.7681 41.0162L35.7681 41.016L35.7577 41.015C35.4015 40.979 35.0732 40.8062 34.8418 40.5329C34.6105 40.2597 34.4943 39.9073 34.5177 39.5501C34.541 39.1929 34.7021 38.8586 34.9669 38.6178C35.2318 38.3769 35.5798 38.2483 35.9377 38.259L35.9377 38.2591L35.9462 38.2591C38.5888 38.2474 41.233 38.2485 43.8769 38.2495C44.6324 38.2498 45.3878 38.2501 46.1432 38.2501H46.1627H46.1822H46.2018H46.2213H46.2409H46.2604H46.28H46.2995H46.319H46.3386H46.3581H46.3777H46.3972H46.4168H46.4363H46.4559H46.4754H46.4949H46.5145H46.534H46.5536H46.5731H46.5927H46.6122H46.6318H46.6513H46.6708H46.6904H46.7099H46.7295H46.749H46.7686H46.7881H46.8077H46.8272H46.8467H46.8663H46.8858H46.9054H46.9249H46.9445H46.964H46.9836H47.0031H47.0226H47.0422H47.0617H47.0813H47.1008H47.1204H47.1399H47.1595H47.179H47.1985H47.2181H47.2376H47.2572H47.2767H47.2963H47.3158H47.3354H47.3549H47.3745H47.394H47.4135H47.4331H47.4526H47.4722H47.4917H47.5113H47.5308H47.5504H47.5699H47.5894H47.609H47.6285H47.6481H47.6676H47.6872H47.7067H47.7263H47.7458H47.7654H47.7849H47.8045H47.824H47.8435H47.8631H47.8826H47.9022H47.9217H47.9413H47.9608H47.9804H47.9999H48.0195H48.039H48.0585H48.0781H48.0976H48.1172H48.1367H48.1563H48.1758H48.1954H48.2149H48.2345H48.254H48.2736H48.2931H48.3126H48.3322H48.3517H48.3713H48.3908H48.4104H48.4299H48.4495H48.469H48.4886H48.5081H48.5277H48.5472H48.5667H48.5863H48.6058H48.6254H48.6449H48.6645H48.684H48.7036H48.7231H48.7427H48.7622H48.7818H48.8013H48.8209H48.8404H48.8599H48.8795H48.899H48.9186H48.9381H48.9577H48.9772H48.9968H49.0163H49.0359H49.0554H49.075H49.0945H49.1141H49.1336H49.1532H49.1727H49.1923H49.2118H49.2313H49.2509H49.2704H49.29H49.3095H49.3291H49.3486H49.3682H49.3877H49.4073H49.4268H49.4464H49.4659H49.4855H49.505H49.5246H49.5441H49.5637H49.5832H49.6027H49.6223H49.6418H49.6614H49.6809H49.7005H49.72H49.7396H49.7591H49.7787H49.7982H49.8178H49.8373H49.8569H49.8764H49.896H49.9155H49.9351H49.9546H49.9742H49.9937H50.0133H50.0328H50.0524H50.0719H50.0914H50.111H50.1305H50.1501H50.1696H50.1892H50.2087H50.2283H50.2478H50.2674H50.2869H50.3065H50.326H50.3456H50.3651H50.3847H50.4042H50.4238H50.4433H50.4629H50.4824H50.502H50.5215H50.5411H50.5606H50.5802H50.5997H50.6193H50.6388H50.6584H50.6779H50.6975H50.717H50.7366H50.7561H50.7757H50.7952H50.8148H50.8343H50.8539H50.8734H50.893H50.9125H50.932H50.9516H50.9711H50.9907H51.0102H51.0298H51.0493H51.0689H51.0884H51.108H51.1275H51.1471H51.1666H51.1862H51.2057H51.2253H51.2448H51.2644H51.2839H51.3035H51.323H51.3426H51.3621H51.3817H51.4012H51.4208H51.4403H51.4599H51.4794H51.499H51.5185H51.5381H51.5576H51.5772H51.5967H51.6163H51.6358H51.6554H51.6749H51.6945H51.714H51.7336H51.7531H51.7727H51.7922H51.8118H51.8313H51.8509H51.8704H51.89H51.9095H51.9291H51.9486H51.9682H51.9877H52.0073H52.0268H52.0464H52.0659H52.0855H52.1051H52.1246H52.1442H52.1637H52.1833H52.2028H52.2224H52.2419H52.2615H52.281H52.3006H52.3201H52.3397H52.3592H52.3788H52.3983H52.4179H52.4374H52.457H52.4765H52.4961H52.5156H52.5352H52.5547H52.5743H52.5938H52.6134H52.6329H52.6525H52.672H52.6916H52.7111H52.7307H52.7502H52.7698H52.7893H52.8089H52.8284H52.848H52.8675H52.8871H52.9066H52.9262H52.9458H52.9653H52.9849H53.0044H53.024H53.0435H53.0631H53.0826H53.1022H53.1217H53.1413H53.1608H53.1804H53.1999H53.2195H53.239H53.2586H53.2781H53.2977H53.3172H53.3368H53.3563H53.3759H53.3954H53.415H53.4346H53.4541H53.4737H53.4932H53.5128H53.5323H53.5519H53.5714H53.591H53.6105H53.6301H53.6496H53.6692H53.6887H53.7083H53.7278H53.7474H53.7669H53.7865H53.806H53.8256H53.8452H53.8647H53.8843H53.9038H53.9234H53.9429H53.9625H53.982H54.0016H54.0211H54.0407H54.0602H54.0798H54.0993H54.1189H54.1384H54.158H54.1776H54.1971H54.2167H54.2362H54.2558H54.2753H54.2949H54.3144H54.334H54.3535H54.3731H54.3926H54.4122H54.4317H54.4513H54.4709H54.4904H54.51H54.5295H54.5491H54.5686H54.5882H54.6077H54.6273H54.6468H54.6664H54.6859H54.7055H54.725H54.7446H54.7642H54.7837H54.8033H54.8228H54.8424H54.8619H54.8815H54.901H54.9206H54.9401H54.9597H54.9792H54.9988H55.0184H55.0379H55.0575H55.077H55.0966H55.1161H55.1357H55.1552H55.1748H55.1943H55.2139H55.2335H55.253H55.2726H55.2921H55.3117H55.3312H55.3508H55.3703H55.3899H55.4094H55.429H55.4486H55.4681H55.4877H55.5072H55.5268H55.5463H55.5659H55.5854H55.605H55.6245H55.6441H55.6637H55.6832H55.7028H55.7223H55.7419H55.7614H55.781H55.8005H55.8201H55.8397H55.8592H55.8788H55.8983H55.9179H55.9374H55.957H55.9765H55.9961H56.0156H56.0352H56.0548H56.0743H56.0939H56.1134H56.133H56.1525Z" fill="#A88030" stroke="white" stroke-width="0.5"/>
</svg>
